<svg width="156" height="29" viewBox="0 0 156 29" fill="none" xmlns="http://www.w3.org/2000/svg">
<g clip-path="url(#clip0_16_1948)">
<path d="M26.8302 28.8398C26.8302 28.8398 -1.13248 28.8348 -1.1386 28.8287C-1.14472 28.8226 -1.14972 25.973 -1.14972 25.973H-0.549435C0.00124133 25.973 0.053001 25.9706 0.0768462 25.9438C0.0911361 25.9278 0.164302 25.8153 0.239421 25.6939C0.424646 25.3946 0.731887 24.957 0.926431 24.7154C1.08771 24.515 1.78277 23.6109 2.79784 22.2811L3.34491 21.5644H5.41128H7.47766L7.68249 22.2728C7.79514 22.6624 7.90192 23.0319 7.91973 23.0938L7.95213 23.2066L7.6084 23.6522C6.54617 25.0294 6.38317 25.2262 5.97156 25.6279C5.7834 25.8116 5.6866 25.9176 5.69019 25.9362C5.69526 25.9626 5.76731 25.965 6.66797 25.9689C7.20273 25.9714 7.65017 25.9676 7.66225 25.9606C7.67441 25.9537 7.742 25.8336 7.81259 25.6938C7.94691 25.4278 8.08187 25.225 8.36223 24.8675C8.45442 24.75 8.53824 24.6431 8.5484 24.63C8.55856 24.617 8.57143 24.6062 8.57701 24.6062C8.58709 24.6062 8.70088 24.9575 8.77719 25.2245C8.7998 25.3032 8.83899 25.4934 8.86445 25.647C8.89099 25.807 8.92074 25.9362 8.93411 25.9497C8.95364 25.9691 9.121 25.973 9.94807 25.973H10.9386L10.9616 25.9354C10.9743 25.9149 11.0401 25.7932 11.1079 25.6651C11.1757 25.537 11.2885 25.3553 11.3586 25.2614C11.5401 25.0181 11.8585 24.6516 11.8745 24.6677C11.9125 24.7059 12.0789 25.3248 12.1309 25.6213C12.1651 25.8158 12.1964 25.9501 12.2096 25.9585C12.2345 25.9743 14.7074 25.9785 14.7481 25.9628C14.7627 25.9573 14.7745 25.9438 14.7745 25.9329C14.7745 25.9219 14.7099 25.7971 14.6311 25.6554C14.3274 25.1103 14.3492 25.1685 13.7588 23.3291C13.6112 22.8696 13.4906 22.4847 13.4906 22.4739C13.4906 22.463 13.6338 22.252 13.8088 22.005L14.1269 21.5559L16.2053 21.5601L18.2838 21.5644L18.5887 22.5478C19.04 24.0027 19.3071 24.8787 19.3517 25.0502C19.4022 25.2435 19.4413 25.5068 19.4548 25.7421C19.4619 25.8664 19.473 25.9334 19.4889 25.9494C19.5088 25.9693 19.7142 25.973 20.8105 25.973C21.5245 25.973 22.1205 25.9684 22.135 25.9628C22.1734 25.9481 22.1682 25.9299 22.1013 25.8428C21.9791 25.6837 21.7793 25.2211 21.5303 24.5206C21.3849 24.1116 21.0759 23.1715 20.6602 21.8743C20.5122 21.4121 20.3688 20.9736 20.3415 20.8998C20.2473 20.6444 18.9784 16.2179 18.9529 16.0558C18.9393 15.9687 18.9198 15.8186 18.9098 15.7224C18.8998 15.6262 18.8877 15.5343 18.8829 15.5183C18.8748 15.4909 18.8103 15.4891 17.8343 15.4891H16.7943L16.7212 15.6433C16.625 15.846 16.3665 16.2902 16.229 16.4892C15.8601 17.0225 12.9666 20.8387 12.9468 20.8179C12.9323 20.8026 12.6402 19.7633 12.6461 19.748C12.6529 19.7301 13.2721 18.941 14.7062 17.1225C15.378 16.2704 15.6969 15.9035 15.9736 15.6641C16.0478 15.5999 16.1085 15.5343 16.1085 15.5183C16.1085 15.4908 16.0468 15.4891 15.0417 15.4891H13.9748L13.9665 15.5266C13.962 15.5472 13.9503 15.6105 13.9407 15.6672C13.9015 15.8963 13.8301 16.0451 13.638 16.2975C13.3282 16.7045 12.0105 18.362 11.9913 18.3689C11.9841 18.3716 11.9464 18.2591 11.9075 18.119C11.7927 17.7053 11.5002 16.6726 11.4003 16.3283C11.312 16.0241 11.2839 15.8631 11.2686 15.5724L11.2646 15.4974L9.99827 15.4932C9.22291 15.4905 8.72584 15.4949 8.71626 15.5045C8.70639 15.5144 8.72885 15.5753 8.77605 15.6672C8.97545 16.0548 9.06914 16.3172 9.68909 18.2233C10.0297 19.2707 10.305 20.1403 10.301 20.1558C10.2891 20.2015 9.65011 21.0074 9.63674 20.9936C9.60348 20.9595 8.25924 16.5633 8.22891 16.3897C8.2154 16.3121 8.18901 16.0946 8.17027 15.9063C8.15153 15.7181 8.13272 15.5472 8.12843 15.5266L8.12078 15.4891H7.02343H5.92615L5.69938 15.9432C5.57467 16.1931 5.41604 16.4922 5.34689 16.6081C5.18908 16.8724 4.18488 18.2177 2.73569 20.106C2.43668 20.4956 2.02389 21.0356 1.81837 21.306C1.0361 22.3354 0.305356 23.2719 -0.515185 24.2965C-0.822898 24.6808 -1.09127 25.0145 -1.11158 25.0382L-1.1485 25.0813L-1.14972 0.859863H25.2035C25.2035 0.859863 22.3429 4.59418 16.5953 12.0272C15.4838 13.4647 14.5744 14.6545 14.5744 14.6713C14.5744 14.6889 14.5904 14.7061 14.612 14.7119C14.6612 14.7251 16.1388 14.7249 16.1881 14.7118C16.2282 14.701 16.2525 14.6699 18.4849 11.7723C19.1806 10.8692 19.9233 9.90549 20.1353 9.6305C21.0312 8.46849 26.8074 0.868564 26.8155 0.859863L26.8302 28.8398ZM10.3744 23.2536C10.2236 22.7868 10.1573 22.5589 10.1668 22.54C10.1905 22.4926 10.8278 21.6728 10.8409 21.6728C10.8477 21.6728 10.8774 21.7459 10.907 21.8353C11.0101 22.1467 11.2185 22.7322 11.269 22.8524L11.3199 22.9735L11.2275 23.1023C10.95 23.4895 10.6164 23.9396 10.6069 23.9396C10.6009 23.9396 10.4963 23.6309 10.3744 23.2536ZM4.39831 20.2519C4.40718 20.2404 4.56427 20.0435 4.74739 19.8143C5.19584 19.253 5.65229 18.6577 5.89979 18.3113C6.10967 18.0175 6.35385 17.6459 6.35385 17.6203C6.35385 17.6124 6.36136 17.6059 6.37051 17.6059C6.38067 17.6059 6.38717 17.6801 6.38717 17.7953C6.38717 17.8996 6.39869 18.0515 6.41264 18.1329C6.44082 18.2964 6.59502 18.8166 6.87216 19.6832C6.97229 19.9961 7.05418 20.2568 7.05418 20.2624C7.05418 20.268 6.45297 20.2727 5.71817 20.2727C4.65187 20.2727 4.38541 20.2685 4.39831 20.2519ZM15.1693 20.2352C16.0256 19.1806 16.7348 18.2396 17.0237 17.7743L17.1378 17.5907L17.1467 17.8358C17.1516 17.9706 17.167 18.1334 17.1811 18.1976C17.2155 18.3539 17.382 18.904 17.61 19.6143C17.713 19.9351 17.8008 20.2145 17.8052 20.2351L17.8132 20.2727H16.476H15.1389L15.1693 20.2352Z" fill="#011B33"/>
<path d="M35.2771 24.9717L39.4166 12.6295H42.4304L46.5179 24.9717H44.1278L43.1405 21.9164H38.4121L37.4421 24.9717H35.2771ZM40.7849 14.5111L38.949 20.242H42.6035L40.7849 14.5111Z" fill="#011B33"/>
<path d="M47.007 24.9717L50.9907 18.6366L47.2842 12.6295H49.8822L52.5149 17.014L55.1302 12.6295H57.5031L53.8486 18.5848L57.8148 24.9717H55.1822L52.2724 20.1557L49.3626 24.9717H47.007Z" fill="#011B33"/>
<path d="M58.29 24.9717L62.4295 12.6295H65.4432L69.5308 24.9717H67.1406L66.1534 21.9164H61.425L60.455 24.9717H58.29ZM63.7978 14.5111L61.9619 20.242H65.6165L63.7978 14.5111Z" fill="#011B33"/>
<path d="M74.5088 24.9717V12.6295H77.5918L80.8479 21.0533L84.0349 12.6295H87.0833V24.9717H84.7797V15.6503L81.0905 24.9717H80.3457L76.5872 15.6503V24.9717H74.5088Z" fill="#011B33"/>
<path d="M88.4454 24.9717L92.5849 12.6295H95.5988L99.686 24.9717H97.2961L96.3089 21.9164H91.5803L90.6105 24.9717H88.4454ZM93.9533 14.5111L92.1172 20.242H95.772L93.9533 14.5111Z" fill="#011B33"/>
<path d="M101.056 24.9717V12.6295H103.811L109.024 21.5539V12.6295H111.12V24.9717H108.729L103.152 15.5122V24.9717H101.056Z" fill="#011B33"/>
<path d="M117.651 25.1444C116.035 25.1444 114.823 24.7877 114.014 24.0742C113.218 23.3607 112.773 22.3825 112.68 21.1397H114.898C114.99 21.8647 115.232 22.4286 115.625 22.8313C116.018 23.2226 116.693 23.4182 117.651 23.4182C118.344 23.4182 118.905 23.2456 119.332 22.9004C119.77 22.5437 119.99 22.0833 119.99 21.5194C119.99 20.9441 119.81 20.524 119.453 20.2593C119.095 19.9946 118.414 19.7818 117.409 19.6207C115.873 19.4135 114.759 19.0453 114.066 18.5159C113.385 17.975 113.044 17.1407 113.044 16.0129C113.044 14.9887 113.443 14.1429 114.239 13.4754C115.036 12.808 116.075 12.4742 117.357 12.4742C118.697 12.4742 119.753 12.7792 120.527 13.3891C121.3 13.9875 121.745 14.8736 121.86 16.0474H119.747C119.632 15.403 119.383 14.9369 119.002 14.6492C118.622 14.35 118.073 14.2004 117.357 14.2004C116.676 14.2004 116.15 14.35 115.781 14.6492C115.411 14.9369 115.227 15.3282 115.227 15.823C115.227 16.3524 115.394 16.7494 115.729 17.0141C116.075 17.2788 116.762 17.4859 117.79 17.6355C119.326 17.8427 120.446 18.2167 121.15 18.7575C121.855 19.2869 122.207 20.1442 122.207 21.3295C122.207 22.4228 121.785 23.332 120.942 24.057C120.099 24.782 119.002 25.1444 117.651 25.1444Z" fill="#011B33"/>
<path d="M122.525 24.9717L126.665 12.6295H129.678L133.766 24.9717H131.376L130.389 21.9164H125.66L124.69 24.9717H122.525ZM128.033 14.5111L126.197 20.242H129.852L128.033 14.5111Z" fill="#011B33"/>
<path d="M135.136 24.9717V12.6295H139.293C140.713 12.6295 141.839 12.9287 142.671 13.5271C143.502 14.1255 143.918 15.0347 143.918 16.2545V16.3235C143.918 18.0612 143 19.166 141.163 19.6378L144.645 24.9717H142.151L138.912 19.983H137.44V24.9717H135.136ZM137.44 18.3432H139.293C140.864 18.3432 141.649 17.6872 141.649 16.3753V16.3063C141.649 15.6273 141.446 15.144 141.043 14.8563C140.65 14.5571 140.067 14.4075 139.293 14.4075H137.44V18.3432Z" fill="#011B33"/>
<path d="M148.27 23.1592H149.621C150.983 23.1592 152.005 22.791 152.686 22.0545C153.379 21.3064 153.725 20.2362 153.725 18.8438V18.7057C153.725 15.8632 152.352 14.442 149.603 14.442H148.27V23.1592ZM145.966 24.9717V12.6295H149.725C151.826 12.6295 153.42 13.1761 154.505 14.2694C155.591 15.3511 156.133 16.8184 156.133 18.6711V18.8265C156.133 20.6908 155.585 22.1811 154.488 23.2974C153.391 24.4136 151.792 24.9717 149.69 24.9717H145.966Z" fill="#011B33"/>
<path d="M35.4214 24.9717L39.5609 12.6295H42.5746L46.6622 24.9717H44.272L43.2848 21.9164H38.5563L37.5864 24.9717H35.4214ZM40.9292 14.5111L39.0933 20.242H42.7478L40.9292 14.5111Z" fill="#011B33"/>
<path d="M47.1514 24.9717L51.135 18.6366L47.4285 12.6295H50.0266L52.6592 17.014L55.2745 12.6295H57.6474L53.9928 18.5848L57.9592 24.9717H55.3265L52.4167 20.1557L49.5069 24.9717H47.1514Z" fill="#011B33"/>
<path d="M58.4343 24.9717L62.5738 12.6295H65.5875L69.6751 24.9717H67.2849L66.2976 21.9164H61.5692L60.5993 24.9717H58.4343ZM63.9421 14.5111L62.1061 20.242H65.7607L63.9421 14.5111Z" fill="#011B33"/>
<path d="M74.653 24.9717V12.6295H77.736L80.9922 21.0533L84.1791 12.6295H87.2275V24.9717H84.9239V15.6503L81.2347 24.9717H80.49L76.7315 15.6503V24.9717H74.653Z" fill="#011B33"/>
<path d="M88.5895 24.9717L92.729 12.6295H95.7429L99.8306 24.9717H97.4402L96.453 21.9164H91.7249L90.7546 24.9717H88.5895ZM94.0974 14.5111L92.2618 20.242H95.9161L94.0974 14.5111Z" fill="#011B33"/>
<path d="M101.201 24.9717V12.6295H103.955L109.168 21.5539V12.6295H111.264V24.9717H108.874L103.297 15.5122V24.9717H101.201Z" fill="#011B33"/>
<path d="M117.796 25.1444C116.179 25.1444 114.967 24.7877 114.159 24.0742C113.362 23.3607 112.917 22.3825 112.825 21.1397H115.042C115.134 21.8647 115.377 22.4286 115.769 22.8313C116.162 23.2226 116.837 23.4182 117.796 23.4182C118.489 23.4182 119.049 23.2456 119.476 22.9004C119.914 22.5437 120.134 22.0833 120.134 21.5194C120.134 20.9441 119.955 20.524 119.597 20.2593C119.239 19.9946 118.558 19.7818 117.553 19.6207C116.017 19.4135 114.903 19.0453 114.211 18.5159C113.529 17.975 113.189 17.1407 113.189 16.0129C113.189 14.9887 113.587 14.1429 114.384 13.4754C115.181 12.808 116.22 12.4742 117.501 12.4742C118.841 12.4742 119.898 12.7792 120.671 13.3891C121.444 13.9875 121.889 14.8736 122.005 16.0474H119.892C119.776 15.403 119.528 14.9369 119.147 14.6492C118.766 14.35 118.217 14.2004 117.501 14.2004C116.82 14.2004 116.295 14.35 115.925 14.6492C115.556 14.9369 115.371 15.3282 115.371 15.823C115.371 16.3524 115.539 16.7494 115.873 17.0141C116.22 17.2788 116.907 17.4859 117.934 17.6355C119.47 17.8427 120.59 18.2167 121.294 18.7575C121.999 19.2869 122.351 20.1442 122.351 21.3295C122.351 22.4228 121.93 23.332 121.086 24.057C120.244 24.782 119.147 25.1444 117.796 25.1444Z" fill="#011B33"/>
<path d="M122.669 24.9717L126.809 12.6295H129.823L133.91 24.9717H131.52L130.533 21.9164H125.804L124.834 24.9717H122.669ZM128.177 14.5111L126.341 20.242H129.996L128.177 14.5111Z" fill="#011B33"/>
<path d="M135.281 24.9717V12.6295H139.438C140.858 12.6295 141.983 12.9287 142.815 13.5271C143.646 14.1255 144.062 15.0347 144.062 16.2545V16.3235C144.062 18.0612 143.144 19.166 141.308 19.6378L144.789 24.9717H142.295L139.056 19.983H137.584V24.9717H135.281ZM137.584 18.3432H139.438C141.008 18.3432 141.793 17.6872 141.793 16.3753V16.3063C141.793 15.6273 141.591 15.144 141.187 14.8563C140.794 14.5571 140.211 14.4075 139.438 14.4075H137.584V18.3432Z" fill="#011B33"/>
<path d="M148.414 23.1592H149.765C151.128 23.1592 152.15 22.791 152.831 22.0545C153.524 21.3064 153.87 20.2362 153.87 18.8438V18.7057C153.87 15.8632 152.496 14.442 149.748 14.442H148.414V23.1592ZM146.111 24.9717V12.6295H149.869C151.971 12.6295 153.564 13.1761 154.649 14.2694C155.735 15.3511 156.277 16.8184 156.277 18.6711V18.8265C156.277 20.6908 155.729 22.1811 154.632 23.2974C153.535 24.4136 151.936 24.9717 149.834 24.9717H146.111Z" fill="#011B33"/>
</g>
<defs>
<clipPath id="clip0_16_1948">
<rect width="155.444" height="27.98" fill="white" transform="translate(0.0527954 0.859863)"/>
</clipPath>
</defs>
</svg>
