<svg width="48" height="29" viewBox="0 0 48 29" fill="none" xmlns="http://www.w3.org/2000/svg">
<g clip-path="url(#clip0_16_1921)">
<path d="M33.3138 21.8968H38.2634V0.859863L33.3138 1.91128V21.8968Z" fill="#011B33"/>
<path d="M24.1703 6.83423C22.6597 6.83423 21.183 7.28218 19.927 8.12143C18.671 8.96068 17.692 10.1535 17.1139 11.5492C16.5359 12.9448 16.3846 14.4805 16.6793 15.9621C16.974 17.4437 17.7014 18.8046 18.7696 19.8728C19.8378 20.9409 21.1987 21.6683 22.6803 21.9631C24.1619 22.2578 25.6976 22.1065 27.0932 21.5284C28.4888 20.9503 29.6817 19.9714 30.5209 18.7154C31.3602 17.4593 31.8081 15.9826 31.8081 14.472C31.8081 12.4464 31.0034 10.5036 29.5711 9.07129C28.1387 7.63892 26.196 6.83423 24.1703 6.83423ZM24.1703 16.9464C23.6808 16.9464 23.2022 16.8012 22.7951 16.5292C22.3881 16.2572 22.0708 15.8706 21.8835 15.4183C21.6962 14.9659 21.6472 14.4682 21.7428 13.9881C21.8384 13.5079 22.0742 13.0669 22.4204 12.7208C22.7667 12.3746 23.2078 12.139 23.6879 12.0435C24.1681 11.9481 24.6658 11.9973 25.1181 12.1847C25.5703 12.3722 25.9569 12.6895 26.2287 13.0967C26.5006 13.5038 26.6457 13.9824 26.6455 14.472C26.6453 15.1283 26.3844 15.7577 25.9203 16.2217C25.4561 16.6857 24.8267 16.9464 24.1703 16.9464Z" fill="#011B33"/>
<path d="M24.1703 23.8904C23.6808 23.8904 23.2023 24.0355 22.7952 24.3075C22.3882 24.5795 22.0709 24.9661 21.8836 25.4183C21.6963 25.8706 21.6472 26.3683 21.7428 26.8484C21.8383 27.3286 22.074 27.7696 22.4201 28.1157C22.7663 28.4619 23.2073 28.6976 23.6875 28.7931C24.1676 28.8886 24.6653 28.8396 25.1176 28.6523C25.5698 28.465 25.9564 28.1477 26.2284 27.7407C26.5003 27.3336 26.6455 26.8551 26.6455 26.3655C26.6455 25.7091 26.3847 25.0795 25.9206 24.6153C25.4564 24.1512 24.8268 23.8904 24.1703 23.8904Z" fill="#011B33"/>
<path d="M11.0421 1.82932C10.0167 1.1954 8.83498 0.859698 7.62947 0.859863H-0.0699844V21.8968H8.59425C9.88276 21.8959 11.1419 21.512 12.2118 20.7939C13.2817 20.0758 14.114 19.056 14.603 17.8639C15.0921 16.6717 15.2157 15.3612 14.9583 14.0986C14.7009 12.8361 14.0741 11.6785 13.1574 10.773C13.6058 10.0469 13.9068 9.23952 14.0432 8.39706C14.1796 7.5546 14.1486 6.69353 13.9522 5.86302C13.7558 5.03251 13.3977 4.24882 12.8984 3.55671C12.399 2.86461 11.7683 2.27764 11.0421 1.82932ZM4.88658 5.81018H7.6365C8.04681 5.81018 8.44031 5.97318 8.73044 6.26331C9.02057 6.55344 9.18357 6.94695 9.18357 7.35726C9.18357 7.76756 9.02057 8.16107 8.73044 8.4512C8.44031 8.74133 8.04681 8.90433 7.6365 8.90433H4.88658V5.81018ZM8.59893 16.9472H4.88658V13.8531H8.59893C8.80497 13.8485 9.00985 13.885 9.20155 13.9607C9.39326 14.0363 9.56791 14.1495 9.71527 14.2936C9.86262 14.4377 9.9797 14.6098 10.0596 14.7997C10.1396 14.9897 10.1807 15.1937 10.1807 15.3998C10.1807 15.6059 10.1396 15.8099 10.0596 15.9998C9.9797 16.1898 9.86262 16.3619 9.71527 16.5059C9.56791 16.65 9.39326 16.7632 9.20155 16.8388C9.00985 16.9145 8.80497 16.9511 8.59893 16.9465V16.9472Z" fill="#011B33"/>
<path d="M46.5131 17.9917C45.5234 17.9917 45.1456 17.1253 45.1456 15.9497V12.0657H47.6137V7.11612H45.1386V3.33508L40.189 4.3865V17.1947C40.189 20.2124 42.0624 21.9515 44.8295 22.0959C44.8568 22.0959 44.8911 22.1029 44.9184 22.1029H44.9684C45.0301 22.1029 45.0847 22.1099 45.1471 22.1099H45.2088C46.0521 22.1063 46.8814 21.8937 47.6223 21.4909V17.8473C47.2609 17.9458 46.8877 17.9943 46.5131 17.9917Z" fill="#011B33"/>
</g>
<defs>
<clipPath id="clip0_16_1921">
<rect width="47.4237" height="27.98" fill="white" transform="translate(0.0631256 0.859863)"/>
</clipPath>
</defs>
</svg>
