<svg width="1208" height="101" viewBox="0 0 1208 101" fill="none" xmlns="http://www.w3.org/2000/svg">
<g clip-path="url(#clip0_16_1782)">
<path d="M75.2365 60.698C75.2375 60.5459 75.2971 60.4 75.403 60.2905C75.5085 60.181 75.6521 60.1163 75.8042 60.1098C75.86 60.1092 75.9149 60.1203 75.966 60.1423C76.0172 60.1644 76.0631 60.1969 76.1009 60.2378C76.1387 60.2787 76.1674 60.3271 76.1854 60.3798C76.2034 60.4326 76.2098 60.4884 76.2049 60.5439C76.2062 60.6952 76.1482 60.8409 76.0428 60.9496C75.9375 61.0582 75.7937 61.1211 75.6424 61.1244C75.5869 61.1261 75.5317 61.116 75.4803 61.0948C75.4289 61.0737 75.3827 61.042 75.3444 61.0018C75.3061 60.9615 75.2766 60.9137 75.2581 60.8614C75.2396 60.809 75.2321 60.7534 75.2365 60.698Z" fill="#011B33"/>
<path d="M77.1041 60.698C77.1051 60.5459 77.1647 60.4 77.2705 60.2905C77.3761 60.181 77.5197 60.1163 77.6718 60.1098C77.7275 60.1092 77.7825 60.1203 77.8336 60.1423C77.8847 60.1644 77.9307 60.1969 77.9685 60.2378C78.0062 60.2787 78.035 60.3271 78.053 60.3798C78.071 60.4326 78.0774 60.4884 78.0725 60.5439C78.0733 60.695 78.0147 60.8404 77.9096 60.9489C77.8043 61.0574 77.661 61.1204 77.5099 61.1244C77.4544 61.1261 77.3992 61.116 77.3478 61.0948C77.2965 61.0737 77.2502 61.042 77.212 61.0018C77.1737 60.9615 77.1441 60.9137 77.1256 60.8614C77.1071 60.809 77.0997 60.7534 77.1041 60.698Z" fill="#011B33"/>
<path d="M78.9716 60.698C78.9726 60.5459 79.0322 60.4 79.138 60.2905C79.2436 60.181 79.3872 60.1163 79.5393 60.1098C79.595 60.1092 79.65 60.1203 79.7011 60.1423C79.7522 60.1644 79.7982 60.1969 79.836 60.2378C79.8737 60.2787 79.9025 60.3271 79.9205 60.3798C79.9385 60.4326 79.9449 60.4884 79.94 60.5439C79.9408 60.695 79.8822 60.8404 79.7771 60.9489C79.6718 61.0574 79.5285 61.1204 79.3774 61.1244C79.3219 61.1261 79.2667 61.116 79.2153 61.0948C79.164 61.0737 79.1177 61.042 79.0794 61.0018C79.0412 60.9615 79.0116 60.9137 78.9931 60.8614C78.9746 60.809 78.9672 60.7534 78.9716 60.698Z" fill="#011B33"/>
<path d="M80.2123 62.3087L80.4435 61.7744C80.5223 61.817 80.6107 61.8382 80.7004 61.836C80.9881 61.836 81.2681 61.5792 81.4556 61.2118L81.5583 61.0089L80.9752 57.6694H81.6893L81.9 59.37C81.9385 59.6731 81.9693 60.0636 81.9873 60.3821H82.013C82.162 60.0661 82.3315 59.686 82.4857 59.37L83.3334 57.6669H84.0501L82.1517 61.2195C81.7381 61.9542 81.3194 62.4269 80.6464 62.4269C80.4948 62.419 80.3469 62.3787 80.2123 62.3087Z" fill="#011B33"/>
<path d="M84.0219 59.7527C84.0219 58.4683 84.9518 57.5897 85.8765 57.5897C86.6343 57.5897 87.1352 58.1215 87.1352 58.9615C87.1352 60.2459 86.2053 61.1244 85.278 61.1244C84.5151 61.1244 84.0219 60.5927 84.0219 59.7527ZM86.3903 58.982C86.3903 58.4683 86.1848 58.1831 85.7969 58.1831C85.2626 58.1831 84.7694 58.8613 84.7694 59.7244C84.7694 60.2382 84.9749 60.5233 85.3602 60.5233C85.8945 60.5259 86.3903 59.8477 86.3903 58.9872V58.982Z" fill="#011B33"/>
<path d="M90.2692 61.0423H89.6681L89.7014 60.5593H89.6732C89.3773 60.8783 88.9755 61.079 88.5429 61.1245C87.9803 61.1245 87.744 60.8137 87.744 60.2716C87.7453 60.1126 87.7633 59.9542 87.798 59.799L88.2244 57.6669H88.9591L88.5506 59.7014C88.5201 59.8181 88.5018 59.9378 88.4967 60.0584C88.4869 60.1163 88.4908 60.1756 88.5082 60.2316C88.5254 60.2877 88.5558 60.3388 88.5966 60.3811C88.6372 60.4233 88.6873 60.4554 88.7428 60.4747C88.798 60.4941 88.8571 60.5002 88.9154 60.4926C89.144 60.4926 89.406 60.3307 89.7477 59.9788L90.1998 57.6669H90.937L90.2692 61.0423Z" fill="#011B33"/>
<path d="M91.9646 57.6668H92.5657L92.504 58.3167H92.5323C92.7891 57.9005 93.1693 57.5846 93.5598 57.5846C93.6751 57.5796 93.7902 57.6007 93.8963 57.6462L93.6394 58.2936C93.5408 58.2506 93.4334 58.2312 93.326 58.237C93.0101 58.237 92.6864 58.4939 92.409 59.0077L92.0108 61.0447H91.2761L91.9646 57.6668Z" fill="#011B33"/>
<path d="M95.8512 61.3736L95.6585 62.378H94.9239L95.8692 57.6668H96.4703L96.4523 58.0804H96.4728C96.7683 57.7922 97.1556 57.6168 97.5672 57.5846C98.1606 57.5846 98.5279 58.0239 98.5279 58.8151C98.5279 60.0995 97.6494 61.127 96.7297 61.127C96.5777 61.1252 96.4287 61.0835 96.2979 61.0059C96.1672 60.9284 96.0593 60.8177 95.9848 60.6851H95.9719L95.8512 61.3736ZM96.4035 58.6943L96.1158 60.1303C96.16 60.2442 96.2365 60.3426 96.3359 60.4133C96.4356 60.4841 96.5538 60.5241 96.6758 60.5284C97.2435 60.5284 97.7675 59.7963 97.7675 58.9281C97.7675 58.4374 97.5723 58.2062 97.2666 58.2062C97.0958 58.2197 96.9301 58.2704 96.7809 58.3547C96.6319 58.439 96.5029 58.5549 96.4035 58.6943Z" fill="#011B33"/>
<path d="M100.871 57.5897C101.654 57.5897 101.944 58.1369 101.944 58.833C101.938 59.0779 101.889 59.3197 101.798 59.5472H99.7429C99.6736 60.2587 100.064 60.5593 100.578 60.5593C100.827 60.5429 101.065 60.4536 101.264 60.3024L101.533 60.7725C101.196 61.0072 100.794 61.1319 100.383 61.1295C99.5785 61.1295 99.0314 60.6158 99.0314 59.7038C99.0339 58.4374 99.9844 57.5897 100.871 57.5897ZM101.3 59.0796C101.322 58.9828 101.333 58.8837 101.333 58.7842C101.333 58.458 101.194 58.1626 100.783 58.1626C100.372 58.1626 99.9741 58.5042 99.8123 59.0796H101.3Z" fill="#011B33"/>
<path d="M104.428 58.9512C104.448 58.8765 104.457 58.7997 104.457 58.7225C104.457 58.3218 104.272 58.178 103.928 58.178C103.615 58.195 103.312 58.2913 103.046 58.458L102.815 57.9442C103.205 57.7336 103.639 57.6158 104.082 57.6C104.775 57.6 105.186 57.9236 105.186 58.6532C105.184 58.8131 105.165 58.9724 105.13 59.1284L104.75 61.0525H104.151V60.6851H104.128C103.85 60.9536 103.486 61.1132 103.1 61.1347C102.989 61.1404 102.878 61.123 102.774 61.0835C102.67 61.0441 102.576 60.9834 102.496 60.9053C102.417 60.8273 102.355 60.7336 102.314 60.6302C102.273 60.5269 102.254 60.4161 102.258 60.3049C102.273 59.3211 103.19 58.9769 104.428 58.9512ZM102.992 60.1534C102.992 60.4257 103.18 60.5592 103.445 60.5592C103.728 60.5311 103.991 60.4005 104.184 60.1919L104.341 59.4213C103.46 59.429 102.992 59.6987 102.992 60.1457V60.1534Z" fill="#011B33"/>
<path d="M105.803 59.7527C105.803 58.5454 106.686 57.5898 107.737 57.5898C107.907 57.5879 108.075 57.6241 108.228 57.6957C108.382 57.7673 108.518 57.8724 108.626 58.0034L108.207 58.4375C108.148 58.3573 108.07 58.2922 107.981 58.2476C107.892 58.203 107.793 58.18 107.693 58.1806C107.087 58.1806 106.558 58.8819 106.558 59.7219C106.558 60.2357 106.784 60.5208 107.239 60.5208C107.474 60.5108 107.699 60.4201 107.876 60.2639L108.192 60.7289C107.877 60.9803 107.487 61.1179 107.085 61.1193C106.35 61.1245 105.803 60.6261 105.803 59.7527Z" fill="#011B33"/>
<path d="M110.586 57.5897C111.357 57.5897 111.66 58.1369 111.66 58.833C111.653 59.078 111.602 59.3199 111.511 59.5472H109.456C109.386 60.2587 109.779 60.5593 110.29 60.5593C110.539 60.5429 110.778 60.4536 110.976 60.3024L111.246 60.7725C110.909 61.0077 110.507 61.1324 110.095 61.1295C109.291 61.1295 108.747 60.6158 108.747 59.7038C108.749 58.4374 109.689 57.5897 110.586 57.5897ZM111.012 59.0796C111.035 58.9828 111.046 58.8837 111.046 58.7842C111.046 58.458 110.907 58.1626 110.496 58.1626C110.085 58.1626 109.687 58.5042 109.525 59.0796H111.012Z" fill="#011B33"/>
<path d="M111.703 61.8309C111.9 61.7851 112.08 61.6879 112.226 61.5493C112.372 61.4108 112.479 61.2357 112.536 61.0423L112.613 60.4437L112.803 60.9575C112.73 61.0193 112.641 61.057 112.546 61.0654C112.488 61.0712 112.43 61.0647 112.375 61.0465C112.32 61.0283 112.27 60.9987 112.227 60.9597C112.185 60.9206 112.151 60.873 112.128 60.82C112.105 60.7669 112.093 60.7096 112.094 60.6518C112.091 60.5806 112.103 60.5096 112.129 60.4433C112.155 60.377 112.194 60.3168 112.245 60.2666C112.295 60.2163 112.356 60.1771 112.422 60.1514C112.488 60.1258 112.559 60.1142 112.631 60.1175C112.936 60.1175 113.106 60.3307 113.106 60.6775C113.106 61.0513 112.976 61.4134 112.738 61.7021C112.501 61.9907 112.17 62.1878 111.803 62.2599L111.703 61.8309Z" fill="#011B33"/>
<path d="M115.377 59.7527C115.377 58.4683 116.309 57.5897 117.234 57.5897C117.992 57.5897 118.49 58.1215 118.49 58.9615C118.49 60.2459 117.56 61.1244 116.635 61.1244C115.878 61.1244 115.377 60.5927 115.377 59.7527ZM117.748 58.982C117.748 58.4683 117.542 58.1831 117.154 58.1831C116.617 58.1831 116.127 58.8613 116.127 59.7244C116.127 60.2382 116.332 60.5233 116.72 60.5233C117.249 60.5259 117.748 59.8477 117.748 58.9872V58.982Z" fill="#011B33"/>
<path d="M121.624 61.0423H121.023L121.056 60.5593H121.031C120.734 60.8788 120.331 61.0797 119.898 61.1245C119.335 61.1245 119.099 60.8137 119.099 60.2716C119.1 60.1125 119.119 59.9539 119.155 59.799L119.579 57.6669H120.317L119.906 59.7014C119.876 59.8184 119.858 59.938 119.852 60.0584C119.842 60.1164 119.847 60.1758 119.864 60.2318C119.882 60.2878 119.912 60.3389 119.954 60.381C119.994 60.4232 120.044 60.4552 120.1 60.4746C120.155 60.4939 120.215 60.5001 120.273 60.4926C120.499 60.4926 120.763 60.3307 121.103 59.9788L121.557 57.6669H122.292L121.624 61.0423Z" fill="#011B33"/>
<path d="M123.317 57.6669H123.918L123.859 58.3168H123.885C124.141 57.9006 124.522 57.5847 124.912 57.5847C125.028 57.5793 125.144 57.6004 125.251 57.6463L124.994 58.2937C124.896 58.2509 124.788 58.2316 124.681 58.2371C124.365 58.2371 124.041 58.494 123.764 59.0078L123.366 61.0449H122.628L123.317 57.6669Z" fill="#011B33"/>
<path d="M126.256 61.7307C126.256 61.3145 126.633 61.0397 127.013 60.8701V60.847C126.948 60.7923 126.895 60.7234 126.86 60.6456C126.825 60.5677 126.808 60.4829 126.81 60.3975C126.823 60.2625 126.869 60.1329 126.946 60.021C127.022 59.9091 127.126 59.8185 127.247 59.7578V59.7219C127.134 59.6285 127.042 59.5107 126.981 59.3773C126.919 59.2439 126.888 59.0983 126.89 58.9512C126.89 58.766 126.927 58.5826 126.998 58.4119C127.07 58.2412 127.175 58.0867 127.308 57.9575C127.441 57.8283 127.599 57.7272 127.771 57.6601C127.944 57.5929 128.128 57.5611 128.313 57.5667C128.464 57.5637 128.613 57.5917 128.752 57.6489H129.952L129.847 58.2063H129.261C129.337 58.3301 129.376 58.4723 129.377 58.6173C129.377 59.4034 128.778 59.9531 127.943 59.9531C127.831 59.9545 127.719 59.9372 127.612 59.9017C127.555 59.9376 127.507 59.9866 127.472 60.0447C127.438 60.1028 127.418 60.1682 127.414 60.2356C127.414 60.436 127.525 60.5156 128.013 60.5696C128.94 60.6852 129.225 60.9164 129.225 61.3402C129.225 62.1263 128.37 62.5193 127.532 62.5193C127.001 62.5476 126.256 62.3729 126.256 61.7307ZM128.506 61.538C128.506 61.2811 128.231 61.1861 127.787 61.1347C127.679 61.1193 127.53 61.0936 127.383 61.0577C127.162 61.1707 126.893 61.3634 126.893 61.5971C126.893 61.9156 127.173 62.0595 127.612 62.0595C128.126 62.0595 128.506 61.8386 128.506 61.538ZM128.74 58.6533C128.74 58.3142 128.568 58.1061 128.288 58.1061C127.866 58.1061 127.568 58.5351 127.568 58.9615C127.568 59.3006 127.74 59.5087 128.02 59.5087C128.442 59.5087 128.74 59.0797 128.74 58.6533Z" fill="#011B33"/>
<path d="M129.957 59.7527C129.957 58.4683 130.887 57.5897 131.815 57.5897C132.585 57.5897 133.071 58.1215 133.071 58.9615C133.071 60.2459 132.141 61.1244 131.216 61.1244C130.458 61.1244 129.957 60.5927 129.957 59.7527ZM132.326 58.982C132.326 58.4683 132.12 58.1831 131.735 58.1831C131.198 58.1831 130.707 58.8613 130.707 59.7244C130.707 60.2382 130.913 60.5233 131.301 60.5233C131.83 60.5259 132.326 59.8477 132.326 58.9872V58.982Z" fill="#011B33"/>
<path d="M135.591 58.9512C135.612 58.8769 135.622 58.7998 135.621 58.7225C135.621 58.3218 135.434 58.178 135.092 58.178C134.78 58.195 134.476 58.2913 134.211 58.458L133.98 57.9442C134.37 57.7332 134.803 57.6154 135.246 57.6C135.94 57.6 136.348 57.9236 136.348 58.6532C136.347 58.813 136.329 58.9724 136.294 59.1284L135.912 61.0525H135.316V60.6851H135.293C135.015 60.9536 134.65 61.1132 134.265 61.1347C134.154 61.1404 134.043 61.123 133.939 61.0835C133.835 61.0441 133.74 60.9834 133.66 60.9054C133.581 60.8274 133.518 60.7338 133.477 60.6304C133.436 60.527 133.416 60.4162 133.42 60.3049C133.435 59.3211 134.35 58.9769 135.591 58.9512ZM134.155 60.1534C134.155 60.4257 134.345 60.5592 134.609 60.5592C134.892 60.5315 135.154 60.4007 135.347 60.1919L135.506 59.4213C134.625 59.429 134.155 59.6987 134.155 60.1457V60.1534Z" fill="#011B33"/>
<path d="M137.864 56.1949H138.601L137.628 61.0423H136.893L137.864 56.1949Z" fill="#011B33"/>
<path d="M139.269 44.3655L140.05 41.6375H130.003L128.385 44.3655H139.269Z" fill="#011B33"/>
<path d="M138.129 48.3575L138.979 45.3854H128.93L126.823 52.7424H136.872L137.684 49.9039H132.03L132.475 48.3575H138.129Z" fill="#011B33"/>
<path d="M126.744 44.3655L128.359 41.6426H120.139C119.368 41.6416 118.617 41.8917 118.001 42.3552C117.385 42.8186 116.936 43.4702 116.723 44.2114L116.679 44.3629L126.744 44.3655Z" fill="#011B33"/>
<path d="M116.397 45.3854L115.305 49.2155C115.187 49.6273 115.167 50.0609 115.245 50.482C115.323 50.9031 115.498 51.3003 115.756 51.6422C116.014 51.9842 116.348 52.2615 116.732 52.4524C117.115 52.6434 117.538 52.7426 117.966 52.7424H124.347L125.159 49.9168H119.076L120.36 45.3982L116.397 45.3854Z" fill="#011B33"/>
<path d="M104.976 45.3854L98.6486 52.7424H103.475L107.246 48.3575H109.671L110.699 52.7424H114.999L113.273 45.3854H104.976Z" fill="#011B33"/>
<path d="M113.034 44.3655L112.394 41.64L112.397 41.6375H108.199L105.852 44.3655H113.034Z" fill="#011B33"/>
<path d="M100.267 48.3575L101.12 45.3854H91.0707L88.9642 52.7424H99.0134L99.8252 49.9039H94.1712L94.6156 48.3575H100.267Z" fill="#011B33"/>
<path d="M101.41 44.3655L102.191 41.6375H92.1444L90.5261 44.3655H101.41Z" fill="#011B33"/>
<path d="M77.4894 45.3854L75.3829 52.7424H79.1668L80.4229 48.3575H85.5606C86.4709 48.3566 87.3579 48.069 88.0957 47.5355C88.8335 47.0021 89.3845 46.2497 89.6706 45.3854H77.4894Z" fill="#011B33"/>
<path d="M89.9635 44.3655C90.0277 44.0339 90.0182 43.6922 89.935 43.3648C89.8517 43.0374 89.6973 42.7325 89.4826 42.4718C89.2678 42.2111 88.9979 42.0011 88.6924 41.8569C88.387 41.7126 88.0536 41.6377 87.7158 41.6375H78.5605L76.9448 44.3655H89.9635Z" fill="#011B33"/>
<path d="M66.4949 44.3655C66.5588 44.0338 66.5486 43.692 66.4651 43.3646C66.3816 43.0372 66.227 42.7324 66.0119 42.4717C65.7969 42.2111 65.5272 42.0012 65.2215 41.8569C64.9161 41.7127 64.5824 41.6378 64.2446 41.6375H55.0406L53.4325 44.3655H66.4949Z" fill="#011B33"/>
<path d="M66.2046 45.3854H53.9668L51.8604 52.7424H55.6468L56.9004 48.3575H61.1928L59.9393 52.7424H63.7231L64.5657 49.796C64.6625 49.4615 64.6713 49.1077 64.5911 48.7688C64.511 48.4299 64.3448 48.1174 64.1084 47.8617C65.102 47.3397 65.8537 46.4516 66.2046 45.3854Z" fill="#011B33"/>
<path d="M51.904 44.3656L52.6798 41.6529H48.6571L47.8813 44.3656H51.904Z" fill="#011B33"/>
<path d="M44.136 44.3656L43.5195 41.6529H39.3246L36.933 44.3656H44.136Z" fill="#011B33"/>
<path d="M47.5884 45.3854L45.7903 51.6712L44.3646 45.3854H36.0365L33.6295 48.1186H40.7811L41.9781 52.7424H49.5047L51.6112 45.3854H47.5884Z" fill="#011B33"/>
<path d="M28.515 48.5707C28.5001 48.3532 28.4708 48.137 28.4277 47.9233C28.3969 47.7769 28.3686 47.687 28.3326 47.52C27.8492 45.1155 26.6033 42.931 24.78 41.2907C24.7266 41.2431 24.6699 41.1993 24.6104 41.1597C24.2097 40.8026 23.7935 40.4584 23.3645 40.1321C21.37 38.5754 19.0282 37.5248 16.5392 37.0701C15.0637 36.8143 13.5571 36.7918 12.0746 37.0033C10.6923 37.2073 9.33978 37.5782 8.04675 38.1079C6.14712 38.8425 4.47318 40.0621 3.1917 41.6452L3.09409 41.7685C3.08389 41.7829 3.07274 41.7966 3.06069 41.8096C2.88362 42.0214 2.71812 42.2426 2.56491 42.4723C2.55844 42.4809 2.54945 42.4871 2.53922 42.4903C2.15904 43.0426 1.76858 43.6848 1.73005 43.7542C0.71393 45.4771 0.0649976 47.3916 -0.176007 49.3773C-0.467947 51.8597 0.0348013 54.3707 1.25996 56.5494C1.33445 56.683 1.40895 56.8063 1.49372 56.945C1.56006 57.0814 1.64666 57.207 1.7506 57.3175C0.851672 55.6106 0.361839 53.7181 0.319772 51.7894V51.6327C0.319772 51.5351 0.319772 51.4375 0.319772 51.3424C0.351636 50.3295 0.512188 49.3247 0.79757 48.3523C1.14764 47.1864 1.65769 46.0746 2.31317 45.0488C2.31317 45.0488 2.35941 44.9743 2.44418 44.8459C2.79747 44.3169 3.18266 43.8099 3.59757 43.3277C3.60821 43.3137 3.62026 43.3008 3.63354 43.2892C3.8262 43.0631 4.03427 42.832 4.25776 42.6033L4.2706 42.5905C4.45042 42.4107 4.63537 42.2309 4.8306 42.0613C5.47388 41.459 6.1801 40.9276 6.93702 40.4764C8.57605 39.5302 10.3921 38.9313 12.2724 38.7167C13.6726 38.5362 15.0923 38.5761 16.4801 38.8349C18.1343 39.1445 19.7141 39.767 21.1348 40.669C22.4492 41.5059 23.6369 42.5266 24.6618 43.7002C24.6812 43.7228 24.7027 43.7434 24.726 43.7619C26.609 46.0738 27.1279 49.498 27.1484 49.6496C27.1844 50.1993 27.1998 50.749 27.1921 51.3039C27.1921 51.4631 27.1921 51.625 27.1921 51.7868C27.1487 53.0755 26.9478 54.354 26.5936 55.5938C25.8864 58.0915 24.3554 60.2768 22.2497 61.7949C20.6165 62.9574 18.79 63.821 16.8552 64.3456C16.3414 64.492 15.8277 64.6179 15.3011 64.7566C15.3498 64.7594 15.3987 64.7594 15.4475 64.7566C15.8354 64.6898 16.2181 64.6256 16.6086 64.5434C18.3052 64.1963 19.9424 63.6045 21.4688 62.7863C23.0866 61.9263 24.5135 60.7475 25.6637 59.3211C27.5004 57.0092 28.3506 54.3505 28.533 51.4426C28.6026 50.4863 28.5965 49.526 28.515 48.5707Z" fill="#011B33"/>
<path d="M34.6545 41.1597C34.656 41.1189 34.6481 41.0784 34.6309 41.0414C34.6137 41.0044 34.588 40.972 34.5559 40.9469C34.5238 40.9218 34.4862 40.9047 34.4462 40.897C34.4061 40.8894 34.3647 40.8913 34.3257 40.9028L33.3829 41.0415C32.0672 41.2313 30.7692 41.5277 29.5015 41.9277C28.8382 42.1374 28.1868 42.3818 27.5492 42.6599C27.5132 42.6753 27.4593 42.7318 27.4105 42.7189L27.0174 42.9013L26.984 42.9193C26.6912 43.0529 26.4061 43.207 26.1132 43.3457C24.8198 43.9692 23.6836 44.8762 22.7892 45.9993C21.8032 47.2357 20.9355 48.5619 20.1972 49.9604C19.9558 50.4048 19.7246 50.8518 19.4857 51.2988C19.1774 51.9564 18.3811 51.6378 18.0369 51.4606C17.9809 51.4361 17.9275 51.406 17.8776 51.3707C17.8031 51.3219 17.7312 51.2705 17.6567 51.2294C16.5129 50.5937 15.2644 50.1683 13.9704 49.9733C12.4669 49.7669 10.9367 49.8807 9.48017 50.3072C8.70953 50.5281 7.9209 50.7696 7.16824 51.0419C7.00641 51.101 6.48751 51.2988 5.40861 51.7226L5.2776 51.7766L5.22622 51.7971C5.15173 51.8279 5.07466 51.8588 5.00274 51.8921C4.98984 51.9074 4.97368 51.9194 4.95542 51.9274C4.93718 51.9355 4.91732 51.9392 4.89742 51.9384L4.64054 52.0617C4.38366 52.1876 4.12677 52.3186 3.86989 52.447C3.26366 52.7861 2.85008 53.043 2.82696 53.061C2.3816 53.3521 1.96906 53.6906 1.5965 54.0705C2.08971 53.9986 2.54953 53.9292 3.01191 53.8676C4.88766 53.5814 6.78405 53.4525 8.68127 53.4822C9.7445 53.4923 10.8008 53.6549 11.8178 53.9652C12.5241 54.1737 13.1658 54.5582 13.6827 55.0826C13.7726 55.1802 13.7675 55.2188 13.6339 55.2521C13.3411 55.3266 13.0559 55.4191 12.7631 55.491C11.8717 55.712 10.9649 55.8764 10.0838 56.141C9.69466 56.2348 9.32509 56.3965 8.9921 56.6188C8.60164 56.909 8.58879 56.9758 8.91503 57.3586C9.24844 57.7027 9.66803 57.951 10.1301 58.0778C11.2515 58.4329 12.4068 58.6705 13.5774 58.7868C13.6853 58.7868 13.6956 58.7688 13.6622 58.6789C13.588 58.4823 13.5464 58.275 13.5389 58.065C13.521 57.8873 13.5667 57.709 13.6678 57.5618C13.7689 57.4146 13.9189 57.308 14.0912 57.261C14.3926 57.1602 14.7046 57.0946 15.0211 57.0657C15.6993 56.9964 16.3826 57.0066 17.0607 56.9244C17.9605 56.8344 18.8385 56.593 19.6578 56.2103C20.554 55.7385 21.3594 55.1114 22.0365 54.3582C22.653 53.7126 23.2652 53.0644 23.8732 52.4136C23.9682 52.3109 24.0402 52.2775 24.1712 52.3597C24.3022 52.4419 24.5051 52.5292 24.6695 52.6166C24.7492 52.6602 24.7903 52.6654 24.7903 52.5523C24.8002 52.2625 24.7804 51.9724 24.7312 51.6866C24.7106 51.5081 24.6546 51.3354 24.5664 51.1788C24.4782 51.0222 24.3595 50.8848 24.2174 50.7747C24.0875 50.6737 23.9353 50.6053 23.7734 50.5753C23.6116 50.5454 23.445 50.5547 23.2875 50.6026C23.3055 50.5435 23.3158 50.4999 23.3286 50.4588C23.5649 49.7774 23.8606 49.1181 24.2123 48.4885C24.5758 47.8307 25.0594 47.2469 25.638 46.7674C25.6752 46.7336 25.7192 46.708 25.7669 46.6921C25.8147 46.6762 25.8653 46.6703 25.9154 46.6749C26.049 46.6856 26.1831 46.6588 26.3025 46.5975C26.4217 46.5363 26.5217 46.443 26.591 46.3281C26.6732 46.2022 26.7066 46.0584 26.7811 45.9171C27.002 46.323 27.3796 46.4026 27.7752 46.4129C27.9738 46.4241 28.1696 46.3608 28.3239 46.2354C28.4783 46.1099 28.5803 45.9314 28.6101 45.7347C28.9954 45.9762 29.1701 45.9556 29.3499 45.6217C29.4244 45.4804 29.4963 45.4008 29.6659 45.4239C29.746 45.4255 29.8239 45.3971 29.8842 45.3443C30.0214 45.2406 30.1185 45.0926 30.1591 44.9255C30.1873 44.8356 30.213 44.8228 30.2978 44.8716C30.3746 44.9202 30.4638 44.946 30.5547 44.946C30.6456 44.946 30.7348 44.9202 30.8116 44.8716C30.9449 44.7838 31.0536 44.6636 31.1275 44.5222C31.1686 44.4503 31.1995 44.4169 31.2971 44.4375C31.3636 44.4648 31.4355 44.476 31.5072 44.4703C31.5789 44.4645 31.6482 44.442 31.7094 44.4044C31.7708 44.3669 31.8224 44.3155 31.8602 44.2542C31.8977 44.193 31.9205 44.1238 31.9264 44.0521C31.9318 44.014 31.9483 43.9782 31.974 43.9494C31.9994 43.9207 32.033 43.9001 32.0703 43.8903C32.2206 43.8495 32.3511 43.7558 32.4379 43.6265C32.5247 43.4973 32.562 43.341 32.5429 43.1865C32.5414 43.1073 32.5345 43.0284 32.5224 42.9501C32.5224 42.9065 32.5224 42.8654 32.5686 42.8628C32.6198 42.869 32.6714 42.8638 32.7202 42.8474C32.7189 42.832 32.7189 42.8165 32.7202 42.8011L32.7433 42.832C32.7798 42.8107 32.8109 42.7818 32.835 42.7472C32.8589 42.7126 32.8748 42.6731 32.882 42.6316C32.882 42.6316 32.882 42.6316 32.882 42.6162C32.8807 42.6059 32.8807 42.5956 32.882 42.5854C32.8944 42.4456 32.8741 42.3049 32.8229 42.1744C33.0927 42.2155 33.3367 42.2591 33.573 42.2874C33.683 42.3054 33.796 42.2971 33.9021 42.2632C34.0084 42.2293 34.105 42.1707 34.1844 42.0921C34.3647 41.9189 34.5096 41.7121 34.6108 41.4833C34.6525 41.3809 34.6676 41.2695 34.6545 41.1597Z" fill="#011B33"/>
</g>
<g clip-path="url(#clip1_16_1782)">
<path d="M247.553 49.462H246.074V46.1933H247.553V43.7497C247.553 40.8595 248.689 39.0714 253.064 39.0714H253.27V42.6142H252.955C252.095 42.6142 251.717 42.9927 251.717 44.1282V46.1933H253.231V49.462H251.717V64.531H247.553V49.462ZM253.883 39.7603H258.111V43.8875H253.883V39.7603ZM253.918 46.1948H258.082V64.531H253.918V46.1933V46.1948Z" fill="#011B33"/>
<path d="M259.182 39.0714H263.346V64.531H259.182V39.0714Z" fill="#011B33"/>
<path d="M264.309 46.1933H268.505V48.1888C269.262 47.1562 270.811 45.9526 272.221 45.9526C273.597 45.9526 274.457 46.4688 274.733 48.2236C275.593 47.0881 277.279 45.9526 278.558 45.9526C280.243 45.9526 281.206 46.64 281.206 49.7709V64.531H277.044V51.2501C277.044 50.322 276.899 49.8739 276.355 49.8739C275.909 49.8739 275.289 50.2872 274.841 50.7339V64.531H270.679V51.2501C270.679 50.322 270.542 49.8739 270.025 49.8739C269.509 49.8739 268.89 50.322 268.511 50.7339V64.531H264.309V46.1933Z" fill="#011B33"/>
<path d="M282.68 39.0714H284.16V48.6064C284.916 47.5753 286.224 46.2325 287.806 46.2325C289.493 46.2325 290.318 47.2998 290.318 50.5685V64.5368H288.839V50.7005C288.839 48.7384 288.736 47.6377 287.497 47.6377C286.499 47.6377 285.158 48.808 284.162 50.1146V64.531H282.68V39.0714Z" fill="#011B33"/>
<path d="M291.867 55.5166C291.867 49.2546 293.001 46.2266 295.994 46.2266C298.954 46.2266 300.123 49.2546 300.123 55.5166C300.123 61.7089 298.954 64.7717 295.994 64.7717C293.034 64.7717 291.867 61.7089 291.867 55.5166ZM298.61 55.4817C298.61 51.2849 298.3 47.6029 296 47.6029C293.797 47.6029 293.35 50.9746 293.35 55.4817C293.35 59.7134 293.659 63.3954 296 63.3954C298.197 63.3983 298.61 60.0629 298.61 55.4817Z" fill="#011B33"/>
<path d="M301.671 60.3675V46.4688H303.151V60.2297C303.151 62.1918 303.254 63.2925 304.492 63.2925C305.49 63.2925 306.831 62.1222 307.827 60.8156V46.4688H309.302V64.531H307.823V62.3629C307.072 63.3984 305.765 64.7035 304.183 64.7035C302.497 64.7035 301.671 63.6362 301.671 60.3675Z" fill="#011B33"/>
<path d="M310.172 61.1593L311.478 60.6778C312.132 62.4659 313.095 63.4636 314.609 63.4636C316.088 63.4636 316.742 62.4325 316.742 60.8533C316.742 59.0304 315.503 57.5512 314.16 55.9342C312.648 54.1099 311.064 52.2522 311.064 49.913C311.064 47.7378 312.475 46.1628 314.574 46.1628C316.534 46.1628 317.532 47.4361 318.324 49.5693L317.019 50.0508C316.502 48.6006 315.883 47.5391 314.575 47.5391C313.372 47.5391 312.58 48.5368 312.58 49.913C312.58 51.9085 313.991 53.4225 315.297 54.9699C316.846 56.8624 318.257 58.6867 318.257 60.8533C318.257 63.1939 316.984 64.8442 314.61 64.8442C312.404 64.8399 311.098 63.6362 310.172 61.1593Z" fill="#011B33"/>
<path d="M319.114 55.5166C319.114 49.1169 320.283 46.2266 323.243 46.2266C326.615 46.2266 327.096 50.8672 327.096 55.344V55.5166H320.593C320.593 60.5748 321.11 63.3954 323.276 63.3954C324.86 63.3954 325.272 62.2251 325.65 59.5771L326.955 59.7134C326.509 63.4984 325.07 64.7717 323.205 64.7717C320.283 64.7717 319.114 61.8466 319.114 55.5166ZM325.582 54.2114C325.547 50.5293 325.134 47.6043 323.243 47.6043C321.316 47.6043 320.834 49.7042 320.593 54.2114H325.582Z" fill="#011B33"/>
<path d="M286.701 41.8152C286.701 39.6515 288.161 38.8742 289.419 38.8742C290.825 38.8742 291.423 39.6515 291.764 40.526L290.654 40.9204C290.431 40.2809 290.026 39.972 289.397 39.972C288.652 39.972 288.022 40.4622 288.022 41.8152C288.022 43.0189 288.512 43.6801 289.377 43.6801C289.973 43.6801 290.392 43.4989 290.698 42.6998L291.784 43.0957C291.379 44.0021 290.708 44.7576 289.345 44.7576C288.034 44.7562 286.701 43.8832 286.701 41.8152Z" fill="#011B33"/>
<path d="M292.551 36.8599H293.894V37.9997H292.551V36.8599ZM292.563 38.98H293.884V44.6358H292.563V38.98Z" fill="#011B33"/>
<path d="M295.09 38.98H296.413V39.7472C296.679 39.4678 297 39.2463 297.355 39.0966C297.711 38.9469 298.094 38.8722 298.479 38.8771C299.471 38.8771 300.11 39.4571 300.11 40.5825V44.643H298.788V40.9088C298.788 40.2808 298.523 39.9923 297.947 39.9923C297.372 39.9923 296.892 40.291 296.413 40.7275V44.643H295.09V38.98Z" fill="#011B33"/>
<path d="M300.875 41.8152C300.875 39.6631 302.398 38.8742 303.571 38.8742C304.839 38.8742 306.054 39.6312 306.054 41.9327V42.2416H302.185C302.238 43.2567 302.868 43.712 303.699 43.712C303.996 43.7234 304.291 43.6701 304.565 43.556C304.84 43.4418 305.086 43.2694 305.287 43.0508L305.978 43.7338C305.682 44.0681 305.315 44.333 304.905 44.5097C304.494 44.6863 304.05 44.7705 303.603 44.7562C302.185 44.7562 300.875 43.8933 300.875 41.8152ZM304.85 41.2612C304.775 40.3911 304.348 39.9401 303.56 39.9401C302.92 39.9401 302.334 40.3026 302.206 41.2612H304.85Z" fill="#011B33"/>
<path d="M306.885 38.98H308.19V39.7602C308.431 39.4828 308.729 39.2603 309.064 39.1077C309.398 38.9551 309.761 38.876 310.129 38.8756C311.077 38.8756 311.451 39.2483 311.675 39.8023C311.921 39.517 312.225 39.287 312.567 39.1273C312.909 38.9676 313.28 38.8818 313.657 38.8756C314.807 38.8756 315.309 39.5688 315.309 40.581V44.6416H314.004V40.9088C314.004 40.2808 313.823 39.9923 313.205 39.9923C312.671 39.9923 312.245 40.291 311.755 40.729V44.6445H310.449V40.9088C310.449 40.2808 310.268 39.9923 309.65 39.9923C309.128 39.9923 308.692 40.291 308.2 40.729V44.6445H306.895V38.9887L306.885 38.98Z" fill="#011B33"/>
<path d="M316.05 43.2755C316.05 42.0501 317.094 41.2293 319.736 40.9306V40.7609C319.736 40.1953 319.439 39.9502 318.81 39.9502C318.021 39.9502 317.381 40.3345 316.903 40.7174L316.263 39.8966C317.016 39.2327 317.988 38.8711 318.991 38.8814C320.504 38.8814 321.021 39.6065 321.021 40.9277V43.2538C321.021 43.9354 321.065 44.3516 321.182 44.6387H319.86C319.774 44.4066 319.731 44.161 319.732 43.9136C319.152 44.4937 318.485 44.7228 317.644 44.7228C316.732 44.7243 316.05 44.2123 316.05 43.2755ZM319.744 43.0623V41.8152C318.177 42.0284 317.346 42.4127 317.346 43.0304C317.346 43.4771 317.655 43.712 318.135 43.712C318.433 43.7153 318.728 43.6595 319.004 43.548C319.281 43.4365 319.532 43.2714 319.744 43.0623Z" fill="#011B33"/>
<path d="M321.687 43.8614L322.4 43.0624C322.897 43.488 323.527 43.7256 324.181 43.7338C324.885 43.7338 325.309 43.5525 325.309 43.0841C325.309 42.6157 324.729 42.4866 324.052 42.3271C323.079 42.1023 321.919 41.8471 321.919 40.5361C321.919 39.5456 322.772 38.8742 324.017 38.8742C325.095 38.8742 325.758 39.1831 326.338 39.6733L325.71 40.526C325.254 40.1614 324.697 39.9457 324.115 39.9082C323.389 39.9082 323.156 40.1634 323.156 40.4883C323.156 40.9465 323.722 41.0843 324.393 41.2337C325.362 41.4468 326.545 41.6919 326.545 43.0131C326.545 44.2066 325.469 44.7605 324.18 44.7605C323.136 44.7562 322.199 44.3835 321.687 43.8614Z" fill="#011B33"/>
</g>
<g clip-path="url(#clip2_16_1782)">
<path d="M463.955 59.5506V64.8399H460.638V47.621H463.955V48.4448C464.943 47.8024 466.094 47.4559 467.272 47.4459C471.039 47.4459 473.809 50.4408 473.809 54.0087C473.809 57.5767 471.065 60.5716 467.272 60.5716C466.089 60.5735 464.933 60.2176 463.955 59.5506ZM463.955 52.4385V55.4831C464.217 56.0403 464.623 56.5169 465.133 56.8629C465.642 57.209 466.234 57.4119 466.849 57.4502C467.463 57.4886 468.076 57.3611 468.625 57.0811C469.173 56.8011 469.636 56.3789 469.965 55.8586C470.294 55.3383 470.477 54.7392 470.495 54.1239C470.513 53.5086 470.365 52.8997 470.067 52.3611C469.769 51.8225 469.332 51.3739 468.801 51.0624C468.27 50.7508 467.665 50.5876 467.049 50.59C466.413 50.5811 465.787 50.7492 465.24 51.0756C464.694 51.402 464.249 51.8739 463.955 52.4385Z" fill="#011B33"/>
<path d="M475.606 44.1507C475.596 43.8995 475.636 43.6489 475.726 43.414C475.815 43.1792 475.952 42.9652 476.127 42.7852C476.303 42.6051 476.513 42.4629 476.746 42.3671C476.978 42.2714 477.227 42.2242 477.479 42.2284C477.734 42.224 477.987 42.2705 478.223 42.3653C478.46 42.46 478.675 42.601 478.856 42.7801C479.038 42.9592 479.181 43.1726 479.279 43.408C479.377 43.6434 479.426 43.8958 479.425 44.1507C479.42 44.6631 479.212 45.1528 478.848 45.5131C478.483 45.8734 477.991 46.0752 477.479 46.0747C477.229 46.0736 476.982 46.0226 476.752 45.9249C476.522 45.8271 476.313 45.6845 476.139 45.5054C475.965 45.3263 475.828 45.1142 475.736 44.8816C475.645 44.649 475.601 44.4005 475.606 44.1507ZM475.807 47.621H479.176V60.3725H475.807V47.621Z" fill="#011B33"/>
<path d="M481.17 53.9608C481.164 53.1026 481.328 52.2516 481.655 51.458C481.982 50.6644 482.464 49.9442 483.074 49.3396C483.683 48.7351 484.407 48.2584 485.203 47.9376C485.999 47.6168 486.851 47.4584 487.709 47.4717C488.883 47.4723 490.037 47.7636 491.071 48.3195V47.621H494.366V59.6482C494.366 62.9656 491.495 64.7643 487.903 64.7643C485.557 64.7643 483.31 64.0658 481.837 62.9214L483.21 60.5513C484.61 61.4478 486.241 61.9161 487.903 61.8985C490.223 61.8985 490.947 60.977 491.047 59.4787C490.047 60.118 488.888 60.4635 487.702 60.4757C483.883 60.472 481.17 57.6283 481.17 53.9608ZM491.071 55.3818V52.538C490.792 51.9447 490.351 51.4423 489.799 51.0888C489.247 50.7353 488.606 50.5451 487.951 50.5403C487.498 50.5359 487.049 50.621 486.629 50.7908C486.21 50.9605 485.828 51.2116 485.505 51.5294C485.183 51.8473 484.927 52.2258 484.751 52.643C484.575 53.0603 484.484 53.5081 484.482 53.9608C484.482 55.931 485.979 57.304 487.927 57.304C488.58 57.321 489.225 57.1486 489.783 56.8075C490.341 56.4665 490.788 55.9713 491.071 55.3818Z" fill="#011B33"/>
<path d="M496.366 53.9608C496.359 53.1026 496.524 52.2516 496.851 51.458C497.177 50.6644 497.66 49.9442 498.269 49.3396C498.878 48.7351 499.602 48.2584 500.398 47.9376C501.194 47.6168 502.046 47.4584 502.904 47.4717C504.08 47.4713 505.238 47.7626 506.273 48.3195V47.621H509.567V59.6482C509.567 62.9656 506.697 64.7643 503.105 64.7643C500.759 64.7643 498.513 64.0658 497.04 62.9214L498.413 60.5513C499.812 61.4481 501.443 61.9164 503.105 61.8985C505.426 61.8985 506.15 60.977 506.249 59.4787C505.25 60.1177 504.091 60.4632 502.904 60.4757C499.086 60.472 496.366 57.6283 496.366 53.9608ZM506.273 55.3818V52.538C505.994 51.9448 505.554 51.4425 505.002 51.0891C504.449 50.7356 503.809 50.5454 503.153 50.5403C502.701 50.5359 502.252 50.621 501.832 50.7908C501.412 50.9605 501.03 51.2116 500.708 51.5294C500.386 51.8473 500.129 52.2258 499.954 52.643C499.778 53.0603 499.687 53.5081 499.685 53.9608C499.685 55.931 501.181 57.304 503.129 57.304C503.783 57.3208 504.427 57.1483 504.985 56.8072C505.543 56.4662 505.99 55.9712 506.273 55.3818Z" fill="#011B33"/>
<path d="M514.406 47.621L517.751 56.13L521.194 47.621H524.696L517.352 64.8399H514.233L516.076 60.249L510.715 47.621H514.406Z" fill="#011B33"/>
<path d="M524.06 47.621H527.628L530.879 56.2313L534.099 47.621H537.6L532.484 60.3725H529.128L524.06 47.621Z" fill="#011B33"/>
<path d="M537.836 53.9092C537.836 50.3172 540.405 47.3464 544.423 47.3464C548.142 47.3464 550.967 50.1422 551.036 53.8152C551.061 54.1311 551.061 54.4485 551.036 54.7643H540.98C541.08 56.5612 542.801 57.7334 544.648 57.7334C546.17 57.7334 547.068 57.3095 548.116 56.4433L549.939 58.3655C548.465 59.9118 546.99 60.636 544.648 60.636C540.332 60.6231 537.836 57.4035 537.836 53.9092ZM541.153 52.3869H547.593C547.268 51.1908 546.118 50.1422 544.373 50.1422C542.351 50.1422 541.504 51.165 541.153 52.3869Z" fill="#011B33"/>
<path d="M551.732 59.0013L553.363 56.3548C554.827 57.3305 556.543 57.8595 558.302 57.8771C559.976 57.8771 560.824 57.4532 560.824 56.7308C560.824 56.2553 560.424 55.907 559.576 55.7319L556.074 54.9836C553.505 54.4307 552.331 53.2125 552.331 51.2166C552.331 49.0953 554.128 47.3224 557.847 47.3224C560.092 47.3224 562.086 47.973 563.461 48.8207L561.939 51.3659C560.816 50.7669 559.32 50.1182 557.746 50.1182C556.325 50.1182 555.501 50.4683 555.501 51.1152C555.501 51.5409 555.801 51.8156 556.623 51.9648L559.572 52.5177C562.766 53.1406 563.995 54.5634 563.995 56.4856C563.995 59.2501 561.231 60.7024 558.205 60.7024C555.931 60.7463 553.69 60.1574 551.732 59.0013Z" fill="#011B33"/>
<path d="M564.659 47.621H566.555V44.1027L569.873 41.9575V47.621H571.819V50.5163H569.874V60.3743H566.557V50.5163H564.657V47.621H564.659Z" fill="#011B33"/>
<path d="M452.331 49.6722C452.276 48.8628 452.143 48.0605 451.935 47.2763C450.986 43.7747 448.986 41.0195 445.938 39.053C444.018 37.8043 441.813 37.063 439.528 36.8986C438.569 36.8285 437.604 36.8544 436.65 36.976C435.644 37.1091 434.655 37.3494 433.701 37.6929C431.159 38.6098 428.941 40.2496 427.319 42.4106C425.696 44.5717 424.741 47.1598 424.571 49.8565C424.539 50.3523 424.539 50.8517 424.539 51.3493V63.4466C424.539 63.7609 424.664 64.0623 424.887 64.2845C425.109 64.5068 425.41 64.6316 425.724 64.6316H430.398C430.691 64.6298 430.972 64.5207 431.19 64.3251C431.407 64.1294 431.545 63.8607 431.578 63.5701C431.609 63.4565 431.625 63.3394 431.626 63.2217V62.9416C431.623 62.9202 431.623 62.8985 431.626 62.8771V62.8458C431.658 62.8542 431.688 62.8686 431.714 62.8882C433.462 63.8549 435.398 64.4332 437.39 64.5837C438.188 64.6427 438.99 64.6347 439.786 64.5597C441.661 64.387 443.481 63.8323 445.134 62.9296C446.787 62.0269 448.237 60.7954 449.396 59.3109C451.047 57.2334 452.058 54.7198 452.304 52.0773C452.387 51.2782 452.396 50.473 452.331 49.6722ZM440.942 57.4016C440.934 57.4442 440.911 57.4825 440.877 57.5099C440.843 57.5372 440.801 57.5517 440.758 57.5509H436.15C436.107 57.5517 436.065 57.5372 436.031 57.5099C435.997 57.4825 435.974 57.4442 435.966 57.4016V57.3721V57.2007C435.965 56.9893 435.988 56.7784 436.036 56.5723C436.065 56.5023 436.084 56.4193 436.113 56.3419C436.143 56.2645 436.172 56.1926 436.202 56.1171C436.231 56.0415 436.279 55.9733 436.32 55.9088L436.386 55.8093C436.429 55.7449 436.477 55.6833 436.528 55.625C436.581 55.5587 436.635 55.5015 436.688 55.4407C436.966 55.168 437.303 54.9636 437.672 54.8436C437.354 54.6701 437.102 54.3954 436.956 54.063C436.811 53.7306 436.78 53.3592 436.869 53.0074C436.958 52.6556 437.162 52.3434 437.448 52.1199C437.733 51.8965 438.086 51.7745 438.448 51.7732C438.882 51.7765 439.296 51.9491 439.604 52.2542C439.782 52.4334 439.916 52.6515 439.996 52.8913C440.075 53.131 440.098 53.386 440.062 53.6361C440.026 53.8862 439.933 54.1245 439.79 54.3325C439.646 54.5404 439.456 54.7122 439.235 54.8344C439.733 54.9984 440.166 55.3156 440.473 55.7406C440.779 56.1657 440.943 56.6767 440.942 57.2007C440.942 57.2671 440.942 57.339 440.942 57.4016ZM448.885 47.3648H428.03C427.991 47.3645 427.952 47.355 427.918 47.337C427.883 47.3189 427.853 47.2929 427.831 47.2611C427.808 47.2292 427.793 47.1924 427.787 47.1538C427.782 47.1151 427.785 47.0756 427.798 47.0386C428.576 44.8333 430.019 42.9237 431.928 41.5729C433.837 40.2221 436.118 39.4968 438.457 39.4968C440.795 39.4968 443.076 40.2221 444.985 41.5729C446.894 42.9237 448.337 44.8333 449.115 47.0386C449.128 47.0755 449.132 47.1148 449.126 47.1533C449.12 47.1919 449.106 47.2285 449.083 47.2603C449.061 47.2921 449.031 47.3182 448.997 47.3363C448.962 47.3545 448.924 47.3642 448.885 47.3648Z" fill="#011B33"/>
</g>
<g clip-path="url(#clip3_16_1782)">
<path d="M671.396 64.5274C670.823 64.4392 670.268 64.368 669.732 64.3141C669.206 64.2604 668.678 64.2333 668.15 64.2331C667.711 64.2356 667.274 64.2626 666.839 64.3141C666.358 64.367 665.833 64.4381 665.263 64.5274L665.121 64.0992C665.744 63.8137 666.149 63.5189 666.337 63.2148C666.562 62.8224 666.711 62.1263 666.784 61.1267C666.825 60.4115 666.825 58.8217 666.784 56.3573C666.754 54.7151 666.721 53.3267 666.684 52.1921C666.648 51.0575 666.604 50.1606 666.554 49.5014C666.526 48.8786 666.418 48.4021 666.242 48.0813C666.066 47.7606 665.713 47.4834 665.152 47.1969L665.25 46.7142C665.97 46.9478 666.883 47.064 667.989 47.063C668.954 47.0563 669.914 46.9303 670.848 46.6877L670.991 47.1969C670.368 47.5 669.981 47.8307 669.83 48.1888C669.709 48.4566 669.657 48.9564 669.674 49.6883C669.674 49.9203 669.683 50.2146 669.69 50.5727C669.696 50.9308 669.69 51.3139 669.69 51.7779C669.69 52.2419 669.679 52.653 669.69 53.0096C669.701 53.3661 669.701 53.6324 669.704 53.8675C669.704 54.2054 669.738 55.0104 669.786 56.2779C669.834 57.5454 669.897 59.3049 669.971 61.5549C670.002 62.2514 670.122 62.7783 670.334 63.1353C670.546 63.4924 670.942 63.8137 671.522 64.0992L671.396 64.5274Z" fill="#011B33"/>
<path d="M681.086 62.5421C679.5 64.045 677.391 64.8715 675.206 64.8466C674.31 64.8551 673.417 64.7468 672.548 64.5242L672.541 64.0992C673.25 63.7597 673.554 61.7775 673.455 58.1526L673.357 55.6083C673.341 54.6616 673.289 53.0988 673.201 50.9199C673.173 50.3313 673.147 49.8642 673.123 49.5185C673.098 49.1697 673.076 48.9424 673.058 48.835C672.879 48.0284 672.432 47.6147 671.717 47.5939V47.1393C672.428 47.0492 673.133 46.9103 673.825 46.7235C674.52 46.5367 675.211 46.3171 675.904 46.068L676.12 46.1739C676.12 46.2284 676.12 46.3125 676.111 46.4292C676.102 46.546 676.102 46.6659 676.111 46.7905C676.117 46.8973 676.117 47.0044 676.111 47.1112C676.111 47.2187 676.102 47.2825 676.102 47.2997V48.6917L676.203 54.453C677.159 53.0069 678.334 52.2839 679.727 52.2839C680.941 52.2839 681.896 52.7568 682.592 53.7024C683.215 54.5246 683.536 55.5782 683.557 56.8633C683.579 59.0983 682.755 60.9912 681.086 62.5421ZM678.42 54.1337C676.863 54.0299 676.112 55.4671 676.166 58.4453C676.166 58.9125 676.181 59.3204 676.187 59.6786C676.194 60.0367 676.203 60.3699 676.219 60.6829C676.234 60.9959 676.251 61.3057 676.275 61.6172C676.298 61.9286 676.321 62.2556 676.345 62.595C676.485 63.4151 676.858 63.8256 677.464 63.8267C678.466 63.8267 679.275 63.0678 679.89 61.5502C680.359 60.4352 680.593 59.2358 680.578 58.0265C680.535 55.5206 679.815 54.223 678.42 54.1337Z" fill="#011B33"/>
<path d="M693.27 62.3864C692.136 63.8687 690.682 64.6099 688.91 64.6099C687.447 64.6099 686.305 64.1547 685.485 63.2444C684.721 62.3869 684.325 61.1994 684.298 59.6817C684.236 57.8854 684.76 56.1176 685.79 54.6445C686.94 53.0376 688.435 52.2341 690.276 52.2341C691.722 52.2341 692.838 52.7791 693.625 53.8691C694.338 54.8324 694.708 56.0646 694.735 57.5656C694.77 59.4206 694.281 61.0276 693.27 62.3864ZM691.592 55.6084C691.097 53.8436 690.313 52.9613 689.242 52.9613C687.6 52.9613 686.806 54.5506 686.861 57.7291C686.884 58.9928 687.088 60.2467 687.469 61.4521C687.996 63.113 688.787 63.9435 689.842 63.9435C691.412 63.9435 692.172 62.4523 692.121 59.47C692.104 58.1659 691.926 56.869 691.592 55.6084Z" fill="#011B33"/>
<path d="M714.17 64.5274C713.757 64.4573 713.337 64.4028 712.908 64.3717C712.48 64.3405 712.032 64.3187 711.568 64.3187C711.3 64.3187 710.937 64.3317 710.478 64.3576C710.021 64.3857 709.483 64.4339 708.858 64.5134L708.743 64.0042C709.4 63.8267 709.824 63.5412 710.014 63.1478C710.151 62.8255 710.213 62.3085 710.201 61.5907L710.182 60.5459V60.2781C710.162 60.1005 710.149 59.9121 710.146 59.7159C710.143 59.5197 710.138 59.2691 710.134 59.0184L710.115 57.9471C710.095 56.7336 710.027 55.9125 709.911 55.4838C709.643 54.4654 709.107 53.9562 708.304 53.9562C707.162 53.9562 706.496 54.6704 706.306 56.0988C706.266 56.3606 706.243 56.6249 706.239 56.8898C706.227 57.2386 706.218 57.6886 706.21 58.2429C706.195 58.4921 706.191 58.7516 706.196 59.0215C706.196 59.2909 706.205 59.5493 706.21 59.8C706.235 61.1765 706.276 61.9805 706.333 62.212C706.526 63.0871 707.009 63.658 707.782 63.9248L707.658 64.4604C707.268 64.3797 706.873 64.3276 706.476 64.3047C706.029 64.2788 705.519 64.2653 704.948 64.2642C704.071 64.2606 703.195 64.3488 702.336 64.5274L702.247 64.0462C703.012 63.8313 703.446 63.126 703.55 61.9301C703.564 61.7869 703.574 61.4879 703.574 61.0317C703.574 60.5755 703.574 59.9417 703.555 59.1429C703.542 58.4827 703.519 57.8973 703.483 57.4021C703.447 56.9069 703.41 56.4678 703.368 56.1175C703.144 54.5812 702.666 53.813 701.935 53.813C701.274 53.813 700.744 54.1244 700.344 54.7472C699.857 55.5154 699.634 57.0248 699.673 59.2753C699.697 60.6507 699.739 61.5331 699.799 61.9223C699.982 63.1182 700.414 63.8147 701.095 64.012L701.023 64.5196C700.175 64.3353 699.311 64.2393 698.443 64.2331C697.536 64.2224 696.63 64.3122 695.743 64.5009L695.601 64.0198C696.38 63.6616 696.84 62.9111 696.981 61.7682C696.996 61.68 696.989 60.7338 696.959 58.9296C696.937 57.7151 696.92 56.7595 696.908 56.063C696.895 55.3498 696.878 54.8936 696.858 54.6974C696.827 53.9293 696.72 53.4289 696.537 53.1964C696.462 53.0718 696.166 52.9566 695.646 52.8491L695.491 52.7962V52.34C697.326 52.1075 698.695 51.7592 699.598 51.2952L699.86 51.6424C699.827 51.8931 699.805 52.1734 699.794 52.4863C699.784 52.7993 699.779 53.1419 699.785 53.5171C699.785 53.6962 699.785 53.8472 699.785 53.9718C699.784 54.0714 699.795 54.1708 699.818 54.2677C700.825 52.7106 702.034 51.932 703.446 51.932C704.679 51.932 705.586 52.7178 706.166 54.2895C707.235 52.7946 708.511 52.0467 709.992 52.0457C711.883 52.0457 712.852 53.3137 712.897 55.8497C712.897 55.9914 712.897 56.1611 712.907 56.3573C712.916 56.5535 712.907 56.7325 712.89 56.9474L712.843 58.8767C712.828 59.0905 712.824 59.3225 712.829 59.5727C712.829 59.8234 712.838 60.099 712.843 60.4026C712.869 61.8684 712.956 62.7435 713.103 63.0279C713.324 63.4203 713.723 63.7416 714.299 63.9917L714.17 64.5274Z" fill="#011B33"/>
<path d="M738.157 64.4978C737.197 64.2886 736.219 64.1811 735.237 64.177C734.736 64.178 734.236 64.2045 733.738 64.2564C733.197 64.3144 732.66 64.4038 732.129 64.5243L732.023 64.0696C732.915 63.6056 733.361 62.9827 733.362 62.2011C733.362 61.5575 733.085 60.3159 732.531 58.4765C731.71 58.206 730.851 58.0703 729.987 58.0748C728.825 58.0748 727.968 58.2715 727.414 58.6649C726.958 59.7233 726.713 60.8604 726.692 62.0127C726.692 63.0507 727.211 63.7115 728.249 63.9948L728.115 64.5305C727.427 64.3913 726.727 64.3198 726.025 64.3172C725.404 64.313 724.785 64.3757 724.177 64.504L724.096 64.1288C724.685 63.5402 725.211 62.6386 725.677 61.4241C726.016 60.5666 726.32 59.7362 726.587 58.9327C726.855 58.1293 727.097 57.3507 727.311 56.5971L729.157 50.2722C729.227 50.0946 729.361 49.6384 729.558 48.9066C729.515 48.7438 729.451 48.587 729.37 48.4395C729.281 48.2697 729.164 48.0689 729.023 47.8369L729.129 47.5426C730.398 47.1678 731.363 46.6488 732.023 45.9855L732.291 46.1194C732.38 46.5834 732.484 47.0921 732.602 47.6453C732.721 48.1986 732.868 48.7971 733.045 49.4407C733.135 49.7272 733.269 50.2083 733.446 50.8872C733.624 51.5661 733.867 52.4443 734.17 53.5125C735.26 57.5672 736.143 60.4068 736.818 62.0313C737.247 63.086 737.729 63.7649 738.264 64.068L738.157 64.4978ZM730.986 53.0858C730.788 52.4256 730.611 51.8495 730.449 51.3575C730.287 50.8654 730.138 50.4434 729.994 50.0853L727.659 57.7151C728.45 57.4344 729.285 57.2983 730.124 57.3133C730.373 57.3133 730.676 57.3315 731.035 57.3678C731.393 57.4042 731.794 57.4561 732.24 57.5236L730.986 53.0858Z" fill="#011B33"/>
<path d="M743.944 64.5243L743.703 64.5788C743.613 64.5601 743.457 64.5383 743.236 64.5118C743.015 64.4853 742.713 64.4449 742.337 64.3904C741.659 64.2845 741.293 64.2346 741.24 64.2346C740.408 64.2163 739.577 64.3137 738.772 64.5243L738.616 63.9622C738.933 63.8397 739.213 63.6372 739.429 63.3745C739.645 63.1117 739.789 62.7976 739.848 62.4627C739.903 62.2301 739.93 61.5424 739.929 60.3995V59.8374C739.929 59.6054 739.938 59.3376 739.955 59.0324C739.972 58.7272 739.982 58.4625 739.982 58.2289V57.6668C739.982 58.5772 740.009 57.9876 740.063 55.898C740.115 53.9339 739.678 52.8896 738.75 52.7651V52.3353C739.469 52.2695 740.184 52.1577 740.889 52.0005C741.557 51.8532 742.211 51.6517 742.845 51.398L743.113 51.7203C743.077 52.0052 743.046 52.4988 743.019 53.1793C742.993 53.8597 742.962 54.7644 742.926 55.8715C742.907 56.1829 742.9 56.5333 742.9 56.9428V62.0064C743.024 63.0445 743.444 63.6964 744.158 63.9622L743.944 64.5243ZM742.498 49.9109C742.122 50.1762 741.671 50.3127 741.212 50.3002C740.796 50.3108 740.389 50.1783 740.059 49.9249C739.908 49.8145 739.784 49.6691 739.7 49.5011C739.616 49.3331 739.574 49.1474 739.577 48.9595C739.579 48.7458 739.637 48.5365 739.747 48.3529C739.856 48.1693 740.013 48.0181 740.2 47.9147C740.556 47.6779 740.977 47.5567 741.405 47.5675C741.818 47.5571 742.223 47.6841 742.557 47.9287C742.709 48.0357 742.833 48.1784 742.917 48.3443C743.001 48.5102 743.043 48.6942 743.04 48.8801C743.043 49.0836 742.995 49.2847 742.901 49.4648C742.806 49.6449 742.667 49.7984 742.498 49.9109Z" fill="#011B33"/>
<path d="M753.977 55.1085C753.831 55.2627 753.654 55.3841 753.458 55.4646C753.262 55.5451 753.051 55.583 752.839 55.5756C752.337 55.5756 751.962 55.2123 751.713 54.4857C751.569 54.1109 751.337 53.923 751.017 53.922C749.998 53.922 749.376 54.5651 749.148 55.8512C748.93 57.1704 748.831 58.5067 748.854 59.8436C748.854 61.1661 748.881 61.9696 748.935 62.254C749.095 63.1644 749.523 63.7717 750.219 64.0758L749.98 64.5305C749.145 64.3307 748.292 64.2231 747.434 64.2097C746.576 64.2188 745.723 64.3265 744.89 64.5305V63.9948C745.442 63.7634 745.817 63.3082 746.014 62.6293C746.118 62.2369 746.169 61.614 746.169 60.7608V56.3542C746.169 56.158 746.169 55.887 746.155 55.5242C746.141 55.1614 746.132 54.7379 746.115 54.2381C746.098 53.827 746.003 53.5327 745.833 53.3537C745.663 53.1746 745.347 53.0235 744.883 52.8974V52.421C745.577 52.3524 746.265 52.2405 746.945 52.0862C747.602 51.9358 748.246 51.7354 748.873 51.4867L749.167 51.8339C749.167 51.9056 749.167 52.013 749.154 52.1562C749.142 52.2995 749.131 52.4957 749.114 52.7448C749.097 52.994 749.087 53.1746 749.087 53.335V54.2459C749.963 52.8528 751.053 52.1562 752.357 52.1562C752.89 52.1374 753.412 52.3079 753.83 52.6374C754.024 52.7954 754.178 52.9963 754.28 53.2241C754.383 53.4519 754.431 53.7004 754.421 53.95C754.43 54.3795 754.271 54.7955 753.977 55.1085Z" fill="#011B33"/>
<path d="M710.798 45.5698C710.672 45.5931 718.615 48.6123 719.345 57.1452V50.8779C719.282 50.8234 716.158 45.182 710.798 45.5698Z" fill="#011B33"/>
<path d="M727.892 45.5698C728.017 45.5931 720.076 48.6123 719.345 57.1452V50.8779C719.409 50.8234 722.531 45.182 727.892 45.5698Z" fill="#011B33"/>
<path d="M726.355 36.8687C726.651 36.9497 720.706 37.9836 719.348 41.9931V39.8085C719.411 39.712 721.693 36.5791 726.355 36.8687Z" fill="#011B33"/>
<path d="M712.334 36.8687C712.039 36.9497 717.983 37.9836 719.341 41.9931V39.8085C719.28 39.712 716.997 36.5791 712.334 36.8687Z" fill="#011B33"/>
<path d="M727.171 41.6957C727.501 41.7891 720.865 42.9881 719.345 47.6392V44.7134C719.521 44.6355 722.337 41.4777 727.171 41.6957Z" fill="#011B33"/>
<path d="M711.523 41.6957C711.192 41.7891 717.827 42.9881 719.348 47.6392V44.7134C719.169 44.6355 716.35 41.4777 711.523 41.6957Z" fill="#011B33"/>
</g>
<g clip-path="url(#clip4_16_1782)">
<path d="M932.967 45.53V64.5402H927.456V61.7657C926.893 62.7298 926.076 63.5206 925.094 64.052C924.078 64.5877 922.943 64.8587 921.794 64.8398C919.419 64.8398 917.644 64.1776 916.47 62.8533C915.295 61.5289 914.707 59.5291 914.707 56.8539V45.53H920.362V56.9651C920.367 59.2683 921.356 60.42 923.33 60.42C924.505 60.42 925.455 60.0198 926.18 59.2193C926.905 58.4189 927.268 57.3691 927.268 56.0698V45.53H932.967Z" fill="#051C32"/>
<path d="M954.586 36.8599V64.5402H948.999V61.728C948.421 62.7064 947.576 63.4995 946.562 64.0143C945.46 64.577 944.237 64.8605 943 64.8399C941.458 64.8638 939.944 64.4267 938.652 63.5846C937.347 62.7124 936.314 61.4911 935.67 60.06C934.958 58.5521 934.601 56.8206 934.601 54.8654C934.601 52.9103 934.958 51.192 935.67 49.7105C936.313 48.3044 937.34 47.1086 938.633 46.2613C939.938 45.4362 941.456 45.0121 943 45.0418C944.21 45.0269 945.406 45.3036 946.487 45.8485C947.494 46.3474 948.339 47.1211 948.924 48.0801V36.8599H954.586ZM947.874 59.0837C948.628 58.1224 949.005 56.7402 949.005 54.9371C949.005 53.1628 948.624 51.7945 947.861 50.832C947.098 49.8694 946.03 49.3882 944.657 49.3882C943.257 49.3882 942.169 49.8632 941.394 50.8131C940.619 51.7631 940.231 53.1126 940.231 54.8617C940.231 56.661 940.619 58.0546 941.394 59.0422C942.169 60.0298 943.257 60.5236 944.657 60.5236C946.052 60.5262 947.124 60.0462 947.874 59.0837Z" fill="#051C32"/>
<path d="M976.205 45.53V64.5402H970.618V61.728C970.042 62.7054 969.199 63.4984 968.189 64.0143C967.087 64.577 965.863 64.8605 964.626 64.8399C963.085 64.8704 961.568 64.4533 960.259 63.6392C958.964 62.8026 957.936 61.6121 957.296 60.2089C956.579 58.7161 956.22 56.9978 956.22 55.0539C956.22 53.1101 956.576 51.3729 957.289 49.8424C957.929 48.4031 958.963 47.1746 960.272 46.299C961.564 45.4563 963.078 45.0185 964.621 45.0418C965.864 45.0213 967.093 45.3191 968.189 45.907C969.199 46.4437 970.042 47.2476 970.626 48.2309V45.53H976.205ZM969.493 59.1006C970.247 58.1507 970.624 56.776 970.624 54.9767C970.624 53.1773 970.247 51.7951 969.493 50.8301C968.739 49.8688 967.664 49.3876 966.268 49.3863C964.872 49.3851 963.785 49.8877 963.007 50.8942C962.233 51.8994 961.846 53.2866 961.844 55.0558C961.843 56.825 962.224 58.1808 962.988 59.1232C963.75 60.0619 964.843 60.5306 966.268 60.5293C967.674 60.5281 968.749 60.0518 969.493 59.1006Z" fill="#051C32"/>
<path d="M913.559 64.8078H906.535L898.978 56.1886V64.8078H893.245V36.8599H898.978V53.8345L906.194 45.5941H913.066L904.902 54.8296L913.559 64.8078Z" fill="#051C32"/>
<path d="M877.535 64.8172L866.531 52.1532L872.542 64.8172H868.377L862.247 51.9063L864.796 64.8172H862.236L859.686 51.8856V64.8172H858.681V36.8599H859.686V50.8093L862.272 36.8599H864.822L862.227 50.8697L868.475 36.8599H872.595L866.371 50.8169L877.673 36.8599H884.13L872.438 51.2994L884.185 64.8172H877.535Z" fill="#051C32"/>
<path d="M980.954 64.5101C982.669 64.5101 984.059 63.1202 984.059 61.4058C984.059 59.6913 982.669 58.3015 980.954 58.3015C979.24 58.3015 977.85 59.6913 977.85 61.4058C977.85 63.1202 979.24 64.5101 980.954 64.5101Z" fill="#051C32"/>
</g>
<g clip-path="url(#clip5_16_1782)">
<path d="M1171.91 36.8782C1171.56 36.9087 1171.22 36.9954 1170.9 37.1347C1170.39 37.3598 1169.9 37.796 1169.7 38.217C1169.59 38.4464 1169.59 38.467 1169.59 38.8663C1169.59 39.2656 1169.59 39.2992 1169.68 39.4832C1169.97 40.0513 1170.64 40.4983 1171.45 40.6368C1171.95 40.7066 1172.46 40.689 1172.95 40.5849C1173.69 40.3868 1174.37 39.8988 1174.62 39.3587C1174.99 38.6174 1174.74 37.8339 1174 37.3382C1173.43 36.9681 1172.71 36.809 1171.91 36.8782Z" fill="#011B33"/>
<path d="M1177.72 36.8783C1177.37 36.9122 1177.04 36.9987 1176.72 37.1348C1176.21 37.3599 1175.72 37.796 1175.52 38.217C1175.41 38.4464 1175.4 38.467 1175.4 38.8663C1175.4 39.2657 1175.41 39.2992 1175.5 39.4832C1175.78 40.0514 1176.46 40.4983 1177.27 40.6369C1177.76 40.7066 1178.27 40.6891 1178.76 40.5849C1179.51 40.3869 1180.18 39.8988 1180.44 39.3587C1180.8 38.6174 1180.56 37.8339 1179.82 37.3382C1179.25 36.9681 1178.49 36.8014 1177.72 36.8783Z" fill="#011B33"/>
<path d="M1139.72 40.1585C1139.67 40.19 1139.61 40.2157 1139.56 40.2354C1139.09 40.4502 1138.7 40.8077 1138.44 41.257C1138.36 41.4409 1138.28 41.6321 1138.23 41.8284C1138.18 42.0091 1138.12 42.2516 1138.09 42.3695C1138.05 42.4875 1137.98 42.7472 1137.93 42.9583C1137.87 43.1693 1137.75 43.6347 1137.66 43.9983C1137.45 44.7493 1137.39 44.9885 1137.08 46.1627C1136.96 46.6313 1136.81 47.1681 1136.77 47.3532C1136.72 47.5383 1136.66 47.745 1136.64 47.8034C1136.61 47.9116 1136.35 48.877 1136.09 49.8824C1136.02 50.1659 1135.92 50.5501 1135.87 50.7308C1135.82 50.9116 1135.73 51.2925 1135.64 51.5782C1135.56 51.8639 1135.47 52.2362 1135.43 52.4094C1135.38 52.5825 1135.28 52.9711 1135.19 53.2752C1135.11 53.5793 1135.01 53.9678 1134.97 54.1409C1134.92 54.3141 1134.82 54.6821 1134.74 54.9721C1134.67 55.2621 1134.58 55.6095 1134.54 55.7513C1134.5 55.8931 1134.39 56.3065 1134.29 56.6701C1134.2 57.0338 1134.08 57.4775 1134.03 57.6571C1133.99 57.8368 1133.9 58.1668 1133.84 58.3844C1133.78 58.6019 1133.7 58.9255 1133.65 59.1019C1133.4 60.0131 1133.68 60.6084 1134.46 60.8335C1134.48 60.841 1134.49 60.8681 1134.48 60.8995C1134.47 60.9309 1135.39 60.9514 1143.55 60.9514C1152.62 60.9514 1152.64 60.9514 1152.67 60.8822C1152.68 60.8335 1152.71 60.8129 1152.77 60.8129C1152.91 60.8129 1153.28 60.6333 1153.54 60.4493C1154 60.1246 1154.26 59.7112 1154.45 59.011C1154.51 58.7729 1154.61 58.4049 1154.66 58.1972C1154.72 57.9894 1154.82 57.6117 1154.89 57.366C1155.07 56.6939 1155.22 56.1225 1155.31 55.7719C1155.35 55.5987 1155.45 55.2492 1155.52 54.9927C1155.59 54.7362 1155.7 54.2892 1155.78 54.0057C1155.85 53.7221 1155.97 53.2741 1156.04 53.0187C1156.11 52.7633 1156.2 52.4332 1156.23 52.2903C1156.27 52.1475 1156.32 51.9516 1156.35 51.8574C1156.38 51.7633 1156.43 51.5328 1156.48 51.3553C1156.53 51.1778 1156.64 50.7525 1156.73 50.4202C1156.9 49.7796 1156.94 49.6194 1157.15 48.8434C1157.22 48.5772 1157.31 48.2168 1157.36 48.0469C1157.41 47.877 1157.51 47.4614 1157.6 47.1292C1157.74 46.5675 1157.98 45.6811 1158.06 45.3976C1158.08 45.3316 1158.13 45.1519 1158.17 44.9993C1158.26 44.6325 1158.42 44.0675 1158.57 43.4929C1158.64 43.2364 1158.73 42.8825 1158.78 42.7126C1158.82 42.5427 1158.92 42.1834 1158.99 41.9161C1159.09 41.5005 1159.11 41.3934 1159.09 41.1715C1159.09 41.0267 1159.06 40.8839 1159.01 40.7483C1158.89 40.5206 1158.71 40.3324 1158.48 40.2072L1158.34 40.1315H1149.04C1143.93 40.1315 1139.73 40.1445 1139.72 40.1585ZM1153.38 43.1098C1153.37 43.1833 1153.36 43.2557 1153.33 43.3262C1153.07 44.0957 1152.49 46.1324 1152.12 47.5978C1151.85 48.6508 1151.7 49.2049 1151.6 49.5891C1151.56 49.7698 1151.44 50.1995 1151.35 50.5425C1150.93 52.1843 1150.84 52.5512 1150.71 53.0198C1150.64 53.2968 1150.51 53.7643 1150.42 54.0587C1149.89 55.8325 1149.62 56.9309 1149.58 57.4569L1149.56 57.7588L1149.44 57.7935C1148.78 57.9938 1148.08 57.9554 1147.45 57.6853C1147.08 57.5073 1146.75 57.2617 1146.47 56.9612L1146.22 56.6799L1146.04 56.8184C1145.45 57.2576 1144.78 57.5629 1144.07 57.7123C1143.56 57.7916 1143.03 57.7751 1142.53 57.6636C1141.39 57.3487 1140.54 56.3887 1140.18 55.0176C1140.01 54.3682 1139.97 53.9461 1139.97 53.1226C1139.97 52.6897 1139.99 52.2427 1140.01 52.1172C1140.03 51.9916 1140.07 51.7362 1140.1 51.5458C1140.19 51.064 1140.31 50.5893 1140.46 50.1259C1140.99 48.5177 1141.78 47.2038 1142.85 46.1216C1144.31 44.6519 1145.83 44.0838 1147.27 44.4474C1147.82 44.6075 1148.31 44.9254 1148.68 45.3619C1148.78 45.4766 1148.87 45.5599 1148.88 45.5459C1148.9 45.5318 1149.11 44.7797 1149.14 44.5935C1149.17 44.4755 1149.47 44.1877 1149.8 43.9691C1150.55 43.4913 1151.41 43.1983 1152.29 43.1141C1152.4 43.1082 1152.51 43.0908 1152.61 43.0622C1152.74 43.0427 1152.88 43.0354 1153.01 43.0405C1153.36 43.0405 1153.38 43.0448 1153.38 43.1098Z" fill="#011B33"/>
<path d="M1146.52 47.351C1145.7 47.5794 1144.76 48.7157 1144.21 50.1432C1143.9 50.8922 1143.73 51.6891 1143.69 52.4981C1143.65 53.5587 1143.83 54.1853 1144.22 54.4386C1144.34 54.525 1144.49 54.5636 1144.64 54.5468C1144.82 54.5581 1145 54.5095 1145.16 54.4082C1145.93 54.0197 1146.78 52.8563 1147.29 51.4635C1147.68 50.3997 1147.83 49.6313 1147.79 48.8477C1147.75 47.982 1147.54 47.535 1147.13 47.3759C1146.93 47.2978 1146.72 47.289 1146.52 47.351Z" fill="#011B33"/>
<path d="M1199.99 43.0448C1198.23 43.2699 1196.28 44.7667 1194.91 46.9409C1194.49 47.6479 1194.13 48.3856 1193.82 49.1475C1193.48 50.0431 1193.25 50.977 1193.12 51.9289C1193.04 52.7699 1193.04 53.617 1193.12 54.458C1193.38 56.3325 1194.13 57.5651 1195.41 58.1993C1195.86 58.4325 1196.36 58.554 1196.86 58.5532C1197.14 58.5699 1197.42 58.5568 1197.69 58.5142C1198.56 58.3476 1199.38 57.9853 1200.09 57.4547C1200.16 57.3981 1200.23 57.3534 1200.31 57.3227C1200.39 57.4001 1200.47 57.4837 1200.54 57.5727C1200.98 58.0783 1201.56 58.4474 1202.2 58.6365C1202.57 58.7361 1203.39 58.7448 1203.78 58.6571C1204.47 58.4834 1205.14 58.2007 1205.75 57.8195C1206.06 57.629 1206.07 57.6149 1206.12 57.4418C1206.61 55.7167 1206.86 54.8368 1206.85 54.8271C1206.76 54.8378 1206.68 54.8585 1206.6 54.8888C1206.3 54.9786 1205.86 55.0132 1205.66 54.9613C1205.34 54.8747 1205.18 54.6085 1205.21 54.2481C1205.22 54.1507 1205.86 51.6291 1206.64 48.6432C1207.41 45.6573 1208.04 43.2007 1208.04 43.1931C1208.04 43.1855 1207.07 43.1834 1205.89 43.1866L1203.74 43.1974L1203.57 43.8165C1203.48 44.1563 1203.4 44.4442 1203.39 44.4507C1203.31 44.3838 1203.24 44.3071 1203.18 44.2223C1202.43 43.3046 1201.29 42.8814 1199.99 43.0448ZM1201.47 46.5502C1201.86 46.7753 1202.05 47.2082 1202.12 48.0404C1202.21 48.9506 1202.03 49.9971 1201.57 51.1994C1201.07 52.5198 1200.58 53.3336 1199.87 54.0609C1199.31 54.629 1198.91 54.8541 1198.45 54.8541C1197.92 54.8541 1197.6 54.5186 1197.42 53.7806C1197.35 53.4407 1197.32 52.4635 1197.37 51.9754C1197.65 49.5577 1199.16 46.9625 1200.56 46.4982C1200.85 46.4052 1201.26 46.4257 1201.47 46.5502Z" fill="#011B33"/>
<path d="M1168.76 43.1974C1168.76 43.2072 1167.88 46.6227 1166.79 50.7871C1165.7 54.9515 1164.81 58.3627 1164.81 58.3735C1164.81 58.3844 1165.8 58.3876 1167.01 58.3876C1169.08 58.3876 1169.21 58.3876 1169.23 58.3259C1169.25 58.2642 1173.11 43.4117 1173.15 43.2732L1173.17 43.179H1170.97C1169.75 43.179 1168.76 43.1866 1168.76 43.1974Z" fill="#011B33"/>
<path d="M1174.58 43.1974C1174.58 43.2072 1173.69 46.6227 1172.6 50.7871C1171.52 54.9515 1170.63 58.3627 1170.63 58.3735C1170.63 58.3844 1171.62 58.3876 1172.83 58.3876C1174.89 58.3876 1175.03 58.3876 1175.04 58.3259C1175.06 58.2642 1178.93 43.4084 1178.97 43.2732L1178.99 43.179H1176.79C1175.57 43.179 1174.58 43.1866 1174.58 43.1974Z" fill="#011B33"/>
<path d="M1179.98 43.2732C1179.98 43.3284 1180.32 46.7439 1180.71 50.8672L1181.44 58.3638L1181.15 58.7307C1180.91 59.0349 1180.65 59.3264 1180.37 59.604C1179.79 60.1863 1179.32 60.525 1178.82 60.7122C1178.54 60.8205 1178.48 60.827 1178.12 60.8302C1177.75 60.8335 1177.7 60.8237 1177.57 60.7436C1177.41 60.6538 1177.28 60.4871 1177.28 60.3659C1177.28 60.3281 1177.28 60.2934 1177.26 60.2934C1177.25 60.2934 1176.78 60.9233 1176.23 61.6927L1175.23 63.0921V63.3312C1175.23 64.0239 1175.84 64.5304 1176.92 64.7381C1178.61 65.0747 1180.28 64.5509 1182.16 63.0888C1182.74 62.6095 1183.29 62.0797 1183.78 61.5055C1184.03 61.1938 1184.81 60.0304 1185.29 59.2545C1185.45 58.998 1187.72 55.2838 1190.34 50.9981L1195.09 43.2147H1190.67L1190.15 44.0729C1189.27 45.508 1185.28 52.0306 1185.26 52.0447C1185.24 52.0587 1185.25 52.0511 1185.24 52.0447C1185.23 52.0382 1185.03 50.0393 1184.8 47.6075L1184.37 43.1833H1179.96L1179.98 43.2732Z" fill="#011B33"/>
<path d="M1166.14 43.2667C1165.58 43.3749 1164.76 43.7061 1164.12 44.0838C1163.97 44.1769 1163.94 44.1844 1163.96 44.1292C1163.97 44.0946 1164.02 43.9128 1164.07 43.7169C1164.12 43.521 1164.16 43.3425 1164.17 43.3078C1164.19 43.2526 1164.07 43.2494 1161.99 43.2494H1159.8L1159.76 43.3576C1159.71 43.5026 1155.74 58.3065 1155.74 58.3303C1155.74 58.3541 1156.72 58.3508 1157.93 58.3508C1160 58.3508 1160.13 58.3508 1160.15 58.2891C1160.16 58.2578 1160.7 56.2481 1161.35 53.8304C1162.42 49.8672 1162.55 49.3932 1162.7 49.0685C1163.55 47.2742 1164.87 46.6876 1166.42 47.403C1166.53 47.4559 1166.64 47.4998 1166.75 47.5339C1166.76 47.5339 1166.99 46.6097 1167.26 45.4831C1167.81 43.1899 1167.79 43.3976 1167.46 43.2938C1167.22 43.218 1166.47 43.2007 1166.14 43.2667Z" fill="#011B33"/>
</g>
<defs>
<clipPath id="clip0_16_1782">
<rect width="140" height="28" fill="white" transform="translate(0 36.8599)"/>
</clipPath>
<clipPath id="clip1_16_1782">
<rect width="80.7115" height="27.98" fill="white" transform="translate(246.229 36.8599)"/>
</clipPath>
<clipPath id="clip2_16_1782">
<rect width="147.263" height="27.98" fill="white" transform="translate(424.548 36.8599)"/>
</clipPath>
<clipPath id="clip3_16_1782">
<rect width="89.2979" height="27.98" fill="white" transform="translate(665.121 36.8599)"/>
</clipPath>
<clipPath id="clip4_16_1782">
<rect width="125.284" height="27.98" fill="white" transform="translate(858.728 36.8599)"/>
</clipPath>
<clipPath id="clip5_16_1782">
<rect width="74.2832" height="27.98" fill="white" transform="translate(1133.66 36.8599)"/>
</clipPath>
</defs>
</svg>
