<svg width="130" height="29" viewBox="0 0 130 29" fill="none" xmlns="http://www.w3.org/2000/svg">
<g clip-path="url(#clip0_16_1897)">
<path d="M39.2716 4.7063H32.4586C32.2415 4.7063 32.0515 4.8963 32.0515 5.11344V20.4761C32.0515 20.6932 32.2415 20.8832 32.4586 20.8832H39.2988C44.6732 20.8832 48.1475 17.7075 48.1475 12.7948C48.1475 7.85483 44.6732 4.7063 39.2716 4.7063ZM39.2716 16.5947H36.9373V8.96767H39.2988C41.7145 8.96767 43.1803 10.3791 43.1803 12.7676C43.1803 14.6676 41.8503 16.5947 39.2716 16.5947Z" fill="#011B33"/>
<path d="M78.3853 8.85913C76.5124 8.85913 74.9652 9.89054 74.2866 10.9219C73.798 9.56483 72.658 8.85913 70.9208 8.85913C68.9936 8.85913 67.555 9.83626 67.0393 10.4877V9.56483C67.0393 9.34769 66.8493 9.15769 66.6321 9.15769H63.0763C62.8592 9.15769 62.6692 9.34769 62.6692 9.56483V20.449C62.6692 20.6661 62.8592 20.8561 63.0763 20.8561H66.6321C66.8493 20.8561 67.0393 20.6661 67.0393 20.449V13.6362C67.2836 13.3376 67.8265 12.7134 68.8036 12.7134C69.6722 12.7134 70.1336 13.1748 70.1336 14.0162V20.449C70.1336 20.6661 70.3237 20.8561 70.5408 20.8561H74.0966C74.3138 20.8561 74.5038 20.6661 74.5038 20.449V13.6362C74.7481 13.3376 75.2909 12.7134 76.2952 12.7134C77.1367 12.7134 77.6253 13.2019 77.6253 14.0162V20.449C77.6253 20.6661 77.8153 20.8561 78.0324 20.8561H81.5882C81.8053 20.8561 81.9953 20.6661 81.9953 20.449V12.3605C82.0225 10.1077 80.7196 8.85913 78.3853 8.85913Z" fill="#011B33"/>
<path d="M87.7499 9.15771H84.1941C83.977 9.15771 83.787 9.34771 83.787 9.56485V20.449C83.787 20.6661 83.977 20.8561 84.1941 20.8561H87.7499C87.9671 20.8561 88.1571 20.6661 88.1571 20.449V9.56485C88.1571 9.34771 87.9671 9.15771 87.7499 9.15771Z" fill="#011B33"/>
<path d="M86.0671 3.40344C84.7099 3.40344 83.6242 4.48914 83.6242 5.84626C83.6242 7.20339 84.7371 8.28909 86.0671 8.28909C87.4243 8.28909 88.51 7.20339 88.51 5.84626C88.5372 4.51628 87.4243 3.40344 86.0671 3.40344Z" fill="#011B33"/>
<path d="M98.39 8.85913C96.1371 8.85913 94.8884 9.8634 94.3727 10.4877V9.56483C94.3727 9.34769 94.1827 9.15769 93.9656 9.15769H90.4098C90.1926 9.15769 90.0026 9.34769 90.0026 9.56483V20.449C90.0026 20.6661 90.1926 20.8561 90.4098 20.8561H93.9656C94.1827 20.8561 94.3727 20.6661 94.3727 20.449V13.6362C94.6442 13.3105 95.187 12.7134 96.2456 12.7134C97.3856 12.7134 97.9557 13.2833 97.9557 14.3962V20.4761C97.9557 20.6932 98.1457 20.8833 98.3628 20.8833H101.919C102.136 20.8833 102.326 20.6932 102.326 20.4761V12.5776C102.299 10.2434 100.833 8.85913 98.39 8.85913Z" fill="#011B33"/>
<path d="M55.2048 8.80481C51.7847 8.80481 49.0161 11.5733 49.0161 14.9933C49.0161 18.4132 51.7847 21.1818 55.2048 21.1818C58.6249 21.1818 61.3935 18.4132 61.3935 14.9933C61.3664 11.5733 58.5977 8.80481 55.2048 8.80481ZM55.2048 17.029C54.0377 17.029 53.0876 16.079 53.0876 14.9119C53.0876 13.7447 54.0377 12.7948 55.2048 12.7948C56.372 12.7948 57.322 13.7447 57.322 14.9119C57.2949 16.079 56.372 17.029 55.2048 17.029Z" fill="#011B33"/>
<path d="M109.763 8.83203C106.343 8.83203 103.574 11.6006 103.574 15.0205C103.574 18.4405 106.343 21.209 109.763 21.209C113.183 21.209 115.952 18.4405 115.952 15.0205C115.952 11.6006 113.183 8.83203 109.763 8.83203ZM109.763 17.0291C108.596 17.0291 107.646 16.0791 107.646 14.9119C107.646 13.7448 108.596 12.7948 109.763 12.7948C110.93 12.7948 111.88 13.7448 111.88 14.9119C111.88 16.0791 110.93 17.0291 109.763 17.0291Z" fill="#011B33"/>
<path d="M119.372 5.38495C119.372 5.35781 119.372 5.35781 119.372 5.38495C119.372 5.35781 119.372 5.35781 119.372 5.35781C119.101 4.13639 117.77 3.26784 116.468 3.53927C115.138 3.81069 114.269 5.03211 114.54 6.28065C114.758 7.31207 115.653 8.01776 116.712 8.07205C116.658 8.47919 116.278 8.8592 115.979 9.04916C115.762 9.15777 115.898 9.3749 115.898 9.3749L116.169 9.78203C116.25 9.91776 116.359 9.99916 116.495 9.91776C119.182 8.77775 119.643 6.47065 119.372 5.38495Z" fill="#011B33"/>
<path d="M122.521 12.6319C122.521 12.1976 123.063 12.0076 123.796 12.0076C125.208 12.0076 126.022 12.4148 126.918 13.0119C126.999 13.0662 127.135 13.0933 127.244 13.0662C127.352 13.039 127.461 12.9576 127.515 12.8762L128.709 10.7862C128.818 10.5962 128.764 10.3519 128.574 10.2434C127.596 9.64622 126.158 8.88623 123.634 8.88623C120.023 8.88623 118.096 10.5962 118.422 13.039C118.992 17.3275 125.669 15.8618 125.561 17.3275C125.534 17.6532 124.936 17.9247 123.932 17.9247C122.602 17.9247 121.109 17.2733 120.159 16.6761C120.078 16.6218 119.942 16.5947 119.833 16.6218C119.725 16.649 119.643 16.7304 119.589 16.8118L118.205 19.1189C118.096 19.3089 118.151 19.5532 118.341 19.6618C119.671 20.5575 121.815 21.1546 123.688 21.1546C127.298 21.1546 129.388 19.6075 129.388 17.0561C129.334 12.3333 122.548 13.799 122.521 12.6319Z" fill="#011B33"/>
<path d="M26.9939 8.96887L19.3842 1.3521C19.0736 1.04121 18.6336 0.859863 18.1936 0.859863C17.7277 0.859863 17.3135 1.04121 17.003 1.3521L10.6098 7.72534L-0.00235653 18.3474C-0.675321 19.021 -0.675321 20.0831 -0.00235653 20.7567L7.58143 28.3476C7.89206 28.6585 8.33206 28.8399 8.77205 28.8399C9.23795 28.8399 9.6521 28.6585 9.96268 28.3476L19.4618 18.8396L26.9421 11.3524C27.641 10.7047 27.641 9.61659 26.9939 8.96887Z" fill="white"/>
<path d="M26.4504 9.48703L18.8407 1.89617C18.4783 1.53347 17.883 1.53347 17.5206 1.89617L9.31561 10.1088L18.2454 19.0469L26.4504 10.8342C26.8127 10.4456 26.8127 9.87565 26.4504 9.48703ZM19.7725 11.6892C19.3325 12.1296 18.7889 12.3369 18.2195 12.3369C17.65 12.3369 17.1065 12.1296 16.6665 11.6892C16.2265 11.2488 16.0194 10.7047 16.0194 10.1347C16.0194 9.56477 16.2265 8.99479 16.6665 8.58028C17.1065 8.13987 17.65 7.93262 18.2195 7.93262C18.7889 7.93262 19.3325 8.13987 19.7725 8.58028C20.2124 9.02068 20.4196 9.56477 20.4196 10.1347C20.4196 10.7047 20.1866 11.2746 19.7725 11.6892Z" fill="#011B33"/>
<path d="M0.567063 18.8655C0.204697 19.2282 0.204697 19.8241 0.567063 20.1868L8.15085 27.8036C8.33206 27.9849 8.56501 28.0885 8.82385 28.0885C9.05679 28.0885 9.31558 27.9849 9.49679 27.8036L17.7018 19.5909L8.77206 10.6528L0.567063 18.8655ZM7.14143 21.0676C6.70139 21.4821 6.15786 21.7153 5.58839 21.7153C5.01898 21.7153 4.44955 21.5081 4.03542 21.0676C3.5954 20.6272 3.38834 20.0831 3.38834 19.5132C3.38834 18.9432 3.5954 18.3732 4.03542 17.9587C4.47543 17.5183 5.01898 17.3111 5.58839 17.3111C6.15786 17.3111 6.72728 17.5183 7.14143 17.9587C7.58143 18.3992 7.78848 18.9432 7.78848 19.5132C7.78848 20.0831 7.55554 20.6272 7.14143 21.0676ZM10.4804 18.0364C10.9204 17.596 11.4639 17.3887 12.0334 17.3887C12.6028 17.3887 13.1722 17.596 13.5863 18.0364C14.0263 18.4769 14.2334 19.0209 14.2334 19.5909C14.2334 20.1608 14.0263 20.7049 13.5863 21.1453C13.1463 21.5857 12.6028 21.793 12.0334 21.793C11.4639 21.793 10.9204 21.5857 10.4804 21.1453C10.0403 20.7049 9.83326 20.1608 9.83326 19.5909C9.83326 19.0468 10.0403 18.4769 10.4804 18.0364Z" fill="#011B33"/>
</g>
<defs>
<clipPath id="clip0_16_1897">
<rect width="129.138" height="27.98" fill="white" transform="translate(0.0407715 0.859863)"/>
</clipPath>
</defs>
</svg>
