<svg width="69" height="29" viewBox="0 0 69 29" fill="none" xmlns="http://www.w3.org/2000/svg">
<g clip-path="url(#clip0_16_1911)">
<path d="M34.4728 28.8398C53.2336 28.8398 68.4407 22.575 68.4407 14.8522C68.4407 7.1247 53.2336 0.859863 34.4728 0.859863C15.712 0.859863 0.500275 7.1247 0.500275 14.8522C0.500275 22.575 15.712 28.8398 34.4728 28.8398Z" fill="#011B33"/>
<path d="M42.973 11.4008L43.8626 7.85608H32.2652L31.3802 11.4008H35.1762L33.3131 18.8488H37.3094L39.1724 11.4008H42.973Z" fill="white"/>
<path d="M31.2683 7.85608H25.4836L21.7995 16.0027V7.85608H16.1964L12.6892 21.8437H16.541L18.8233 12.8167V21.8437H21.7995L26.1822 12.8167L24.0817 21.8437H27.7611L31.2683 7.85608Z" fill="white"/>
<path d="M56.2519 7.85608H52.5724L50.6488 15.2994L48.8928 7.85608H44.8593L41.3568 21.8437H45.041L46.9646 14.2328L48.8928 21.8437H52.7493L56.2519 7.85608Z" fill="white"/>
<path d="M33.0616 19.8455L32.5586 21.8437H36.5595L37.0579 19.8455H33.0616Z" fill="white"/>
</g>
<defs>
<clipPath id="clip0_16_1911">
<rect width="67.6936" height="27.98" fill="white" transform="translate(0.73822 0.859863)"/>
</clipPath>
</defs>
</svg>
